<svg width="144.058" height="31.45" xmlns="http://www.w3.org/2000/svg"><path d="M68.884 8.772h.272l-.408-2.346v-4.25q0-.748 1.904-1.462T74.766 0q2.312 0 2.958.884a1.461 1.461 0 0 1 .154.276 1.045 1.045 0 0 1 .084.404v24.14a.223.223 0 0 1-.111.172q-.31.229-1.493.388a17.29 17.29 0 0 1-.283.035 32.266 32.266 0 0 1-2.754.207 28.574 28.574 0 0 1-.884.014 41.752 41.752 0 0 1-.612-.004q-.973-.014-1.427-.078a2.166 2.166 0 0 1-.205-.037q-.493-.119-.612-.255a.475.475 0 0 1-.074-.118q-.057-.127-.079-.324l-.272-1.938h-.272q-.306 1.19-1.224 2.006-1.156 1.054-3.502 1.054a7.467 7.467 0 0 1-1.685-.185 6.604 6.604 0 0 1-.661-.189 7.732 7.732 0 0 1-.848-.346q-.426-.205-.768-.447a4.35 4.35 0 0 1-.169-.125 4.268 4.268 0 0 1-.762-.778 5.601 5.601 0 0 1-.445-.684q-.51-.918-.782-1.751a7.54 7.54 0 0 1-.185-.68q-.086-.382-.152-.825a15.261 15.261 0 0 1-.071-.552q-.19-1.682-.203-3.809a51.262 51.262 0 0 1-.001-.305 20.634 20.634 0 0 1 .161-2.67q.172-1.316.529-2.391a8.11 8.11 0 0 1 1.044-2.13 5.872 5.872 0 0 1 1.765-1.685q1.172-.707 2.679-.773a7.187 7.187 0 0 1 .316-.007 10.368 10.368 0 0 1 1.606.116q.837.131 1.5.413a4.083 4.083 0 0 1 1.382.933q.306.34.476.816zm-.102 12.41v-9.078q0-.34-.357-.527a2.096 2.096 0 0 0-.23-.104q-.12-.046-.228-.066a.923.923 0 0 0-.171-.017.637.637 0 0 0-.533.374q-.578.96-.62 4.38a44.88 44.88 0 0 0-.003.55 39.231 39.231 0 0 0 .02 1.308q.04 1.186.158 1.973a6.176 6.176 0 0 0 .145.714q.231.84.646 1.079a.704.704 0 0 0 .357.094q.544 0 .816-.68zm54.774 9.452V9.01a.699.699 0 0 1 .172-.433q.401-.506 1.732-1.029a10.964 10.964 0 0 1 3.532-.735 12.713 12.713 0 0 1 .582-.013q.997 0 1.571.227a2.047 2.047 0 0 1 .027.011 3.657 3.657 0 0 1 .247.112q.363.182.467.364a.896.896 0 0 1 .059.144q.147.432.451 1.896h.272a.831.831 0 0 1 .064-.174q.14-.293.548-.778.544-.646 1.105-1.054a3.473 3.473 0 0 1 .444-.27q.24-.125.532-.24a8.77 8.77 0 0 1 .639-.221 6.97 6.97 0 0 1 1.105-.237q.543-.074 1.157-.084a11.994 11.994 0 0 1 .203-.002q1.411 0 2.567.629.98.533 1.532 1.213a3.458 3.458 0 0 1 .185.249 5.408 5.408 0 0 1 .474.878q.238.553.41 1.23a20.307 20.307 0 0 1 .175.747q.147.686.19 1.179a5.331 5.331 0 0 1 .009.114 16.695 16.695 0 0 1 .022.425q.02.482.026 1.145a69.011 69.011 0 0 1 .003.64q0 1.445-.102 2.856-.102 1.411-.374 2.873a12.228 12.228 0 0 1-.284 1.201q-.181.621-.419 1.146a7.186 7.186 0 0 1-.079.169q-.51 1.054-1.292 1.904-1.445 1.571-4.137 1.69a10.196 10.196 0 0 1-.453.01 6.242 6.242 0 0 1-.964-.071 4.61 4.61 0 0 1-.957-.252q-.584-.226-.959-.511a2.161 2.161 0 0 1-.282-.254 6.523 6.523 0 0 1-.422-.5q-.405-.538-.532-.996a1.704 1.704 0 0 1-.032-.136l-.034-.34h-.272l.476 3.06v3.842a.222.222 0 0 1-.115.172q-.313.223-1.484.379a18.034 18.034 0 0 1-.356.044q-1.955.221-4.012.221-2.057 0-2.737-.187a1.765 1.765 0 0 1-.265-.094q-.415-.19-.415-.535zm9.18-18.598v8.908a1.222 1.222 0 0 0 .047.355q.119.391.537.493a1.41 1.41 0 0 0 .334.036.667.667 0 0 0 .558-.388q.632-1.043.632-4.882 0-2.89-.306-4.046-.306-1.156-.918-1.156a.837.837 0 0 0-.701.348q-.099.13-.173.308a1.853 1.853 0 0 0-.01.024zM14.076 25.092l-.238-2.21h-3.264l-.17 1.904a1.606 1.606 0 0 1-.171.642q-.253.481-.866.718-.936.361-3.315.374a32.8 32.8 0 0 1-.17 0 22.835 22.835 0 0 1-1.753-.063q-.845-.065-1.569-.198a10.615 10.615 0 0 1-.877-.198Q0 25.602 0 24.888a3.079 3.079 0 0 1 .089-.54q.431-1.927 2.937-9.881Q5.602 6.291 6.305 4.015a110.851 110.851 0 0 0 .189-.615.413.413 0 0 1 .189-.186q.503-.296 2.261-.511a29.32 29.32 0 0 1 .287-.034 45.862 45.862 0 0 1 3.355-.248 55.705 55.705 0 0 1 2.153-.041q2.422 0 3.057.692a.838.838 0 0 1 .19.328q5.799 19.267 6.365 21.425a2.154 2.154 0 0 1 .061.267.639.639 0 0 1-.083.307q-.101.186-.325.373a2.465 2.465 0 0 1-.683.362q-.714.259-1.864.344a16.687 16.687 0 0 1-1.227.042q-6.018 0-6.154-1.428zm-2.788-8.67h1.836l-.51-6.12h-.748l-.578 6.12zm35.734-.646v9.928a.223.223 0 0 1-.113.172q-.352.256-1.808.423a34.394 34.394 0 0 1-3.466.218 37.821 37.821 0 0 1-.512.003 35.549 35.549 0 0 1-.831-.009q-1.36-.032-1.838-.178a1.466 1.466 0 0 1-.25-.1q-.124-.065-.206-.148a.523.523 0 0 1-.156-.381V8.942a.605.605 0 0 1 .149-.371q.316-.402 1.3-.839a11.592 11.592 0 0 1 .438-.184q1.887-.748 4.114-.748a6.152 6.152 0 0 1 .824.051q1.458.198 1.675 1.173l.34 1.564h.238a3.141 3.141 0 0 1 .729-1.117q.356-.362.854-.682a7.356 7.356 0 0 1 .695-.394q1.802-.901 3.604-.901t2.533.578q.731.578.731 1.479a15.619 15.619 0 0 1-.016.678q-.031.702-.12 1.617a12.45 12.45 0 0 1-.234 1.454q-.165.753-.427 1.566a17.566 17.566 0 0 1-.002.006q-.354 1.097-.854 1.457a.879.879 0 0 1-.523.175 1.245 1.245 0 0 1-.179-.018q-.499-.078-1.963-.492a18.125 18.125 0 0 0-1.065-.269q-1.104-.241-1.91-.241a6.269 6.269 0 0 0-.467.016q-.769.058-.995.324a1.126 1.126 0 0 0-.217.408q-.049.164-.065.359a2.337 2.337 0 0 0-.007.185zm42.5 0v9.928a.223.223 0 0 1-.113.172q-.352.256-1.808.423a34.394 34.394 0 0 1-3.466.218 37.821 37.821 0 0 1-.512.003 35.549 35.549 0 0 1-.831-.009q-1.36-.032-1.838-.178a1.466 1.466 0 0 1-.25-.1q-.124-.065-.206-.148a.523.523 0 0 1-.156-.381V8.942a.605.605 0 0 1 .149-.371q.316-.402 1.3-.839a11.592 11.592 0 0 1 .438-.184q1.887-.748 4.114-.748a6.152 6.152 0 0 1 .824.051q1.458.198 1.675 1.173l.34 1.564h.238a3.141 3.141 0 0 1 .729-1.117q.356-.362.854-.682a7.356 7.356 0 0 1 .695-.394q1.802-.901 3.604-.901t2.533.578q.731.578.731 1.479a15.619 15.619 0 0 1-.016.678q-.031.702-.12 1.617a12.45 12.45 0 0 1-.234 1.454q-.165.753-.427 1.566a17.566 17.566 0 0 1-.002.006q-.354 1.097-.854 1.457a.879.879 0 0 1-.523.175 1.245 1.245 0 0 1-.179-.018q-.499-.078-1.963-.492a18.125 18.125 0 0 0-1.065-.269q-1.104-.241-1.91-.241a6.269 6.269 0 0 0-.467.016q-.769.058-.995.324a1.126 1.126 0 0 0-.217.408q-.049.164-.065.359a2.337 2.337 0 0 0-.007.185zm21.216 11.05q-2.55 0-4.386-.442-1.836-.442-3.332-1.564a6.546 6.546 0 0 1-2.169-2.829q-.925-2.188-.925-5.535 0-3.454 1.275-5.661a6.932 6.932 0 0 1 1.887-2.125 10.714 10.714 0 0 1 3.876-1.759q1.721-.417 3.774-.417a36.425 36.425 0 0 1 1.423.026q1.119.044 2.011.161a11.028 11.028 0 0 1 2.125.504 13.047 13.047 0 0 1 .782.295q1.479.612 2.38 1.666.722.845 1.237 2.202a12.445 12.445 0 0 1 .242.705 11.907 11.907 0 0 1 .41 1.856q.126.879.158 1.872a21.287 21.287 0 0 1 .01.675 14.553 14.553 0 0 1-.286 2.979q-.628 3.002-2.638 4.79a9.911 9.911 0 0 1-4.309 2.204q-1.518.372-3.305.396a18.412 18.412 0 0 1-.24.001zm-1.19-6.63a12.097 12.097 0 0 0 .09.424q.196.845.403 1.038a.862.862 0 0 0 .417.212 1.256 1.256 0 0 0 .263.026 1.23 1.23 0 0 0 .292-.033.854.854 0 0 0 .388-.205.612.612 0 0 0 .114-.158q.156-.292.299-.976a12.506 12.506 0 0 0 .063-.328q.221-1.224.221-3.077a67.618 67.618 0 0 0-.005-.873q-.016-1.231-.08-1.983-.085-1.003-.204-1.547-.119-.544-.323-.85a1.305 1.305 0 0 0-.192-.223q-.154-.14-.332-.191a.758.758 0 0 0-.207-.028 1.158 1.158 0 0 0-.326.044.907.907 0 0 0-.371.211q-.235.221-.445 1.18a12.443 12.443 0 0 0-.065.316q-.238 1.241-.238 3.519 0 1.878.162 3.039a8.757 8.757 0 0 0 .076.463zM35.292 8.942v16.762a.222.222 0 0 1-.115.172q-.313.223-1.484.379a18.034 18.034 0 0 1-.356.044q-1.955.221-4.012.221-1.786 0-2.47-.141a1.878 1.878 0 0 1-.182-.046 1.396 1.396 0 0 1-.246-.102q-.349-.189-.349-.527V9.554a.739.739 0 0 1 .185-.463q.366-.455 1.455-.905a10.925 10.925 0 0 1 .281-.111 11.282 11.282 0 0 1 3.151-.691 13.464 13.464 0 0 1 1.048-.04q3.094 0 3.094 1.598zM31.976.065q1.334.142 2.211.598A2.251 2.251 0 0 1 35.391 2.3a3.812 3.812 0 0 1 .071.76 2.561 2.561 0 0 1-1.444 2.443q-1.178.617-3.316.617a11.083 11.083 0 0 1-1.618-.108q-1.976-.293-2.709-1.385a2.746 2.746 0 0 1-.433-1.567A2.564 2.564 0 0 1 27.386.612Q28.554 0 30.668 0a12.357 12.357 0 0 1 1.308.065z" stroke-linecap="round" font-size="12" stroke="#f1416c" stroke-width=".945" fill="#f1416c" style="stroke:#f1416c;stroke-width:.25mm;fill:#f1416c"/></svg>