<svg width="115.54" height="28.148" xmlns="http://www.w3.org/2000/svg"><path d="M11.578 27.776H0v-5.047h11.578a1.213 1.213 0 0 0 .879-.359 1.489 1.489 0 0 0 .012-.012 1.213 1.213 0 0 0 .371-.874 1.442 1.442 0 0 0 0-.016q0-.32-.131-.508a.571.571 0 0 0-.24-.197 1.8 1.8 0 0 0-.408-.126q-.223-.041-.483-.041H6.309q-1.318 0-2.468-.501a6.36 6.36 0 0 1-2.004-1.364 6.421 6.421 0 0 1-1.345-2.013A6.212 6.212 0 0 1 0 14.253a8.274 8.274 0 0 1 0-.003 6.215 6.215 0 0 1 .484-2.45 6.06 6.06 0 0 1 .008-.018 6.31 6.31 0 0 1 1.345-2.004 6.31 6.31 0 0 1 2.004-1.345 6.212 6.212 0 0 1 2.465-.492h10.263v5.047H6.309a1.213 1.213 0 0 0-.879.36 1.489 1.489 0 0 0-.012.011 1.213 1.213 0 0 0-.371.875 1.442 1.442 0 0 0 0 .016q0 .538.371.918a1.248 1.248 0 0 0 .45.303 1.226 1.226 0 0 0 .441.078h5.269a6.882 6.882 0 0 1 2.305.383 6.57 6.57 0 0 1 .145.053 6.282 6.282 0 0 1 1.715.969 5.884 5.884 0 0 1 .288.246q.854.779 1.355 1.874.501 1.095.501 2.394a6.095 6.095 0 0 1-.398 2.207 5.84 5.84 0 0 1-.103.251 6.586 6.586 0 0 1-1.355 2.004q-.853.863-2.003 1.355a6.166 6.166 0 0 1-2.45.491zm97.654 0H97.653v-5.047h11.579a1.213 1.213 0 0 0 .879-.359 1.489 1.489 0 0 0 .011-.012 1.213 1.213 0 0 0 .371-.874 1.442 1.442 0 0 0 0-.016q0-.32-.131-.508a.571.571 0 0 0-.24-.197 1.8 1.8 0 0 0-.408-.126q-.223-.041-.482-.041h-5.27q-1.317 0-2.468-.501a6.36 6.36 0 0 1-2.004-1.364 6.421 6.421 0 0 1-1.345-2.013 6.212 6.212 0 0 1-.492-2.465 8.274 8.274 0 0 1 0-.003 6.215 6.215 0 0 1 .485-2.45 6.06 6.06 0 0 1 .007-.018 6.31 6.31 0 0 1 1.345-2.004 6.31 6.31 0 0 1 2.004-1.345 6.212 6.212 0 0 1 2.466-.492h10.263v5.047h-10.261a1.213 1.213 0 0 0-.879.36 1.489 1.489 0 0 0-.012.011 1.213 1.213 0 0 0-.371.875 1.442 1.442 0 0 0 0 .016q0 .538.371.918a1.248 1.248 0 0 0 .451.303 1.226 1.226 0 0 0 .44.078h5.27a6.882 6.882 0 0 1 2.304.383 6.57 6.57 0 0 1 .145.053 6.282 6.282 0 0 1 1.716.969 5.884 5.884 0 0 1 .288.246q.853.779 1.354 1.874.501 1.095.501 2.394a6.095 6.095 0 0 1-.397 2.207 5.84 5.84 0 0 1-.104.251 6.586 6.586 0 0 1-1.354 2.004q-.854.863-2.004 1.355a6.166 6.166 0 0 1-2.449.491zm-15.995 0-1.669-2.319a13.668 13.668 0 0 1-1.309 1.048 9.853 9.853 0 0 1-1.456.854 8.997 8.997 0 0 1-1.568.575 6.398 6.398 0 0 1-1.642.213 9.199 9.199 0 0 1-3.249-.57 8.817 8.817 0 0 1-.202-.079 8.522 8.522 0 0 1-2.83-1.846 8.344 8.344 0 0 1-1.681-2.39 9.789 9.789 0 0 1-.23-.523 9.444 9.444 0 0 1-.614-2.433 11.878 11.878 0 0 1-.082-1.417V7.904h5.047v10.985a5.627 5.627 0 0 0 .077.948 4.343 4.343 0 0 0 .229.842 4.272 4.272 0 0 0 .426.828 3.561 3.561 0 0 0 .4.499 3.453 3.453 0 0 0 1.215.816 3.957 3.957 0 0 0 1.395.277 4.521 4.521 0 0 0 .099.002 3.153 3.153 0 0 0 1.475-.362q.696-.362 1.215-.956a4.583 4.583 0 0 0 .817-1.345q.297-.751.297-1.549V7.904h5.065v19.872h-1.225zm-58.855 0h-3.841a8.625 8.625 0 0 1-3.451-.695q-1.614-.696-2.83-1.912-1.215-1.215-1.911-2.829t-.696-3.451v-5.901h-2.467V7.941h2.467V0H26.7v7.941h7.682v5.047H26.7v5.901a3.781 3.781 0 0 0 .261 1.406 3.646 3.646 0 0 0 .036.087 3.821 3.821 0 0 0 .817 1.216q.519.519 1.224.825a3.732 3.732 0 0 0 1.503.306h3.841v5.047zm39.744 0h-3.841a8.625 8.625 0 0 1-3.451-.695q-1.614-.696-2.829-1.912-1.216-1.215-1.912-2.829-.695-1.614-.695-3.451v-5.901H58.93V7.941h2.468V0h5.046v7.941h7.682v5.047h-7.682v5.901a3.781 3.781 0 0 0 .261 1.406 3.646 3.646 0 0 0 .036.087 3.821 3.821 0 0 0 .817 1.216q.519.519 1.224.825a3.732 3.732 0 0 0 1.503.306h3.841v5.047zM56.462 7.941v19.835h-1.225l-1.966-2.727a16.297 16.297 0 0 1-1.531 1.215q-.807.566-1.698.984-.89.417-1.827.658a7.599 7.599 0 0 1-1.902.241 11.069 11.069 0 0 1-3.478-.539 10.435 10.435 0 0 1-.465-.166 9.367 9.367 0 0 1-3.229-2.05q-1.382-1.345-2.18-3.293-.798-1.949-.798-4.435a11.774 11.774 0 0 1 .312-2.751 10.2 10.2 0 0 1 .486-1.507 10.36 10.36 0 0 1 1.603-2.696 9.609 9.609 0 0 1 .577-.635 9.841 9.841 0 0 1 3.229-2.161 10.139 10.139 0 0 1 3.943-.77 7.708 7.708 0 0 1 1.911.241 9.901 9.901 0 0 1 1.837.668q.89.426 1.697 1.002a14.057 14.057 0 0 1 1.513 1.243l1.966-2.357h1.225zm-5.102 9.723a5.264 5.264 0 0 0-.399-2.013 5.785 5.785 0 0 0-1.086-1.726q-.686-.751-1.605-1.206-.918-.454-1.957-.454a5.439 5.439 0 0 0-1.843.309 5.193 5.193 0 0 0-.115.043 4.457 4.457 0 0 0-1.596 1.039 4.648 4.648 0 0 0-.839 1.184 5.685 5.685 0 0 0-.227.514 5.701 5.701 0 0 0-.321 1.265 7.556 7.556 0 0 0-.069 1.045 7.394 7.394 0 0 0 .094 1.209 5.602 5.602 0 0 0 .296 1.101 5.273 5.273 0 0 0 .555 1.074 4.444 4.444 0 0 0 .511.624 4.457 4.457 0 0 0 1.596 1.039 5.399 5.399 0 0 0 1.893.352 6.09 6.09 0 0 0 .065 0q1.039 0 1.957-.454a5.397 5.397 0 0 0 1.605-1.206 5.785 5.785 0 0 0 1.086-1.726q.399-.974.399-2.013z" stroke-linecap="round" font-size="12" stroke="#00b2ff" stroke-width=".945" fill="#00b2ff" style="stroke:#00b2ff;stroke-width:.25mm;fill:#00b2ff"/></svg>