<svg version="1.1" xmlns="http://www.w3.org/2000/svg" xmlns:xlink="http://www.w3.org/1999/xlink" style="display:none">
<symbol viewBox="0 0 448 512" id="bars"><path d="M0 96C0 78.33 14.33 64 32 64H416C433.7 64 448 78.33 448 96C448 113.7 433.7 128 416 128H32C14.33 128 0 113.7 0 96zM0 256C0 238.3 14.33 224 32 224H416C433.7 224 448 238.3 448 256C448 273.7 433.7 288 416 288H32C14.33 288 0 273.7 0 256zM416 448H32C14.33 448 0 433.7 0 416C0 398.3 14.33 384 32 384H416C433.7 384 448 398.3 448 416C448 433.7 433.7 448 416 448z"/></symbol>
<symbol viewBox="0 0 448 512" id="bell"><path d="M256 32V51.2C329 66.03 384 130.6 384 208V226.8C384 273.9 401.3 319.2 432.5 354.4L439.9 362.7C448.3 372.2 450.4 385.6 445.2 397.1C440 408.6 428.6 416 416 416H32C19.4 416 7.971 408.6 2.809 397.1C-2.353 385.6-.2883 372.2 8.084 362.7L15.5 354.4C46.74 319.2 64 273.9 64 226.8V208C64 130.6 118.1 66.03 192 51.2V32C192 14.33 206.3 0 224 0C241.7 0 256 14.33 256 32H256zM224 512C207 512 190.7 505.3 178.7 493.3C166.7 481.3 160 464.1 160 448H288C288 464.1 281.3 481.3 269.3 493.3C257.3 505.3 240.1 512 224 512z"/></symbol>
<symbol viewBox="0 0 576 512" id="cart-plus"><path d="M96 0C107.5 0 117.4 8.19 119.6 19.51L121.1 32H541.8C562.1 32 578.3 52.25 572.6 72.66L518.6 264.7C514.7 278.5 502.1 288 487.8 288H170.7L179.9 336H488C501.3 336 512 346.7 512 360C512 373.3 501.3 384 488 384H159.1C148.5 384 138.6 375.8 136.4 364.5L76.14 48H24C10.75 48 0 37.25 0 24C0 10.75 10.75 0 24 0H96zM272 180H316V224C316 235 324.1 244 336 244C347 244 356 235 356 224V180H400C411 180 420 171 420 160C420 148.1 411 140 400 140H356V96C356 84.95 347 76 336 76C324.1 76 316 84.95 316 96V140H272C260.1 140 252 148.1 252 160C252 171 260.1 180 272 180zM128 464C128 437.5 149.5 416 176 416C202.5 416 224 437.5 224 464C224 490.5 202.5 512 176 512C149.5 512 128 490.5 128 464zM512 464C512 490.5 490.5 512 464 512C437.5 512 416 490.5 416 464C416 437.5 437.5 416 464 416C490.5 416 512 437.5 512 464z"/></symbol>
<symbol viewBox="0 0 576 512" id="cart-shopping"><path d="M96 0C107.5 0 117.4 8.19 119.6 19.51L121.1 32H541.8C562.1 32 578.3 52.25 572.6 72.66L518.6 264.7C514.7 278.5 502.1 288 487.8 288H170.7L179.9 336H488C501.3 336 512 346.7 512 360C512 373.3 501.3 384 488 384H159.1C148.5 384 138.6 375.8 136.4 364.5L76.14 48H24C10.75 48 0 37.25 0 24C0 10.75 10.75 0 24 0H96zM128 464C128 437.5 149.5 416 176 416C202.5 416 224 437.5 224 464C224 490.5 202.5 512 176 512C149.5 512 128 490.5 128 464zM512 464C512 490.5 490.5 512 464 512C437.5 512 416 490.5 416 464C416 437.5 437.5 416 464 416C490.5 416 512 437.5 512 464z"/></symbol>
<symbol viewBox="0 0 448 512" id="check-double"><path d="M182.6 246.6C170.1 259.1 149.9 259.1 137.4 246.6L57.37 166.6C44.88 154.1 44.88 133.9 57.37 121.4C69.87 108.9 90.13 108.9 102.6 121.4L159.1 178.7L297.4 41.37C309.9 28.88 330.1 28.88 342.6 41.37C355.1 53.87 355.1 74.13 342.6 86.63L182.6 246.6zM182.6 470.6C170.1 483.1 149.9 483.1 137.4 470.6L9.372 342.6C-3.124 330.1-3.124 309.9 9.372 297.4C21.87 284.9 42.13 284.9 54.63 297.4L159.1 402.7L393.4 169.4C405.9 156.9 426.1 156.9 438.6 169.4C451.1 181.9 451.1 202.1 438.6 214.6L182.6 470.6z"/></symbol>
<symbol viewBox="0 0 512 512" id="circle-info"><path d="M256 0C114.6 0 0 114.6 0 256s114.6 256 256 256s256-114.6 256-256S397.4 0 256 0zM256 128c17.67 0 32 14.33 32 32c0 17.67-14.33 32-32 32S224 177.7 224 160C224 142.3 238.3 128 256 128zM296 384h-80C202.8 384 192 373.3 192 360s10.75-24 24-24h16v-64H224c-13.25 0-24-10.75-24-24S210.8 224 224 224h32c13.25 0 24 10.75 24 24v88h16c13.25 0 24 10.75 24 24S309.3 384 296 384z"/></symbol>
<symbol viewBox="0 0 512 512" id="circle-plus"><path d="M0 256C0 114.6 114.6 0 256 0C397.4 0 512 114.6 512 256C512 397.4 397.4 512 256 512C114.6 512 0 397.4 0 256zM256 368C269.3 368 280 357.3 280 344V280H344C357.3 280 368 269.3 368 256C368 242.7 357.3 232 344 232H280V168C280 154.7 269.3 144 256 144C242.7 144 232 154.7 232 168V232H168C154.7 232 144 242.7 144 256C144 269.3 154.7 280 168 280H232V344C232 357.3 242.7 368 256 368z"/></symbol>
<symbol viewBox="0 0 512 512" id="circle-xmark"><path d="M0 256C0 114.6 114.6 0 256 0C397.4 0 512 114.6 512 256C512 397.4 397.4 512 256 512C114.6 512 0 397.4 0 256zM175 208.1L222.1 255.1L175 303C165.7 312.4 165.7 327.6 175 336.1C184.4 346.3 199.6 346.3 208.1 336.1L255.1 289.9L303 336.1C312.4 346.3 327.6 346.3 336.1 336.1C346.3 327.6 346.3 312.4 336.1 303L289.9 255.1L336.1 208.1C346.3 199.6 346.3 184.4 336.1 175C327.6 165.7 312.4 165.7 303 175L255.1 222.1L208.1 175C199.6 165.7 184.4 165.7 175 175C165.7 184.4 165.7 199.6 175 208.1V208.1z"/></symbol>
<symbol viewBox="0 0 640 512" id="discord"><path d="M524.531,69.836a1.5,1.5,0,0,0-.764-.7A485.065,485.065,0,0,0,404.081,32.03a1.816,1.816,0,0,0-1.923.91,337.461,337.461,0,0,0-14.9,30.6,447.848,447.848,0,0,0-134.426,0,309.541,309.541,0,0,0-15.135-30.6,1.89,1.89,0,0,0-1.924-.91A483.689,483.689,0,0,0,116.085,69.137a1.712,1.712,0,0,0-.788.676C39.068,183.651,18.186,294.69,28.43,404.354a2.016,2.016,0,0,0,.765,1.375A487.666,487.666,0,0,0,176.02,479.918a1.9,1.9,0,0,0,2.063-.676A348.2,348.2,0,0,0,208.12,430.4a1.86,1.86,0,0,0-1.019-2.588,321.173,321.173,0,0,1-45.868-21.853,1.885,1.885,0,0,1-.185-3.126c3.082-2.309,6.166-4.711,9.109-7.137a1.819,1.819,0,0,1,1.9-.256c96.229,43.917,200.41,43.917,295.5,0a1.812,1.812,0,0,1,1.924.233c2.944,2.426,6.027,4.851,9.132,7.16a1.884,1.884,0,0,1-.162,3.126,301.407,301.407,0,0,1-45.89,21.83,1.875,1.875,0,0,0-1,2.611,391.055,391.055,0,0,0,30.014,48.815,1.864,1.864,0,0,0,2.063.7A486.048,486.048,0,0,0,610.7,405.729a1.882,1.882,0,0,0,.765-1.352C623.729,277.594,590.933,167.465,524.531,69.836ZM222.491,337.58c-28.972,0-52.844-26.587-52.844-59.239S193.056,219.1,222.491,219.1c29.665,0,53.306,26.82,52.843,59.239C275.334,310.993,251.924,337.58,222.491,337.58Zm195.38,0c-28.971,0-52.843-26.587-52.843-59.239S388.437,219.1,417.871,219.1c29.667,0,53.307,26.82,52.844,59.239C470.715,310.993,447.538,337.58,417.871,337.58Z"/></symbol>
<symbol viewBox="0 0 320 512" id="dollar-sign"><path d="M160 0C177.7 0 192 14.33 192 32V67.68C193.6 67.89 195.1 68.12 196.7 68.35C207.3 69.93 238.9 75.02 251.9 78.31C268.1 82.65 279.4 100.1 275 117.2C270.7 134.3 253.3 144.7 236.1 140.4C226.8 137.1 198.5 133.3 187.3 131.7C155.2 126.9 127.7 129.3 108.8 136.5C90.52 143.5 82.93 153.4 80.92 164.5C78.98 175.2 80.45 181.3 82.21 185.1C84.1 189.1 87.79 193.6 95.14 198.5C111.4 209.2 136.2 216.4 168.4 225.1L171.2 225.9C199.6 233.6 234.4 243.1 260.2 260.2C274.3 269.6 287.6 282.3 295.8 299.9C304.1 317.7 305.9 337.7 302.1 358.1C295.1 397 268.1 422.4 236.4 435.6C222.8 441.2 207.8 444.8 192 446.6V480C192 497.7 177.7 512 160 512C142.3 512 128 497.7 128 480V445.1C127.6 445.1 127.1 444.1 126.7 444.9L126.5 444.9C102.2 441.1 62.07 430.6 35 418.6C18.85 411.4 11.58 392.5 18.76 376.3C25.94 360.2 44.85 352.9 60.1 360.1C81.9 369.4 116.3 378.5 136.2 381.6C168.2 386.4 194.5 383.6 212.3 376.4C229.2 369.5 236.9 359.5 239.1 347.5C241 336.8 239.6 330.7 237.8 326.9C235.9 322.9 232.2 318.4 224.9 313.5C208.6 302.8 183.8 295.6 151.6 286.9L148.8 286.1C120.4 278.4 85.58 268.9 59.76 251.8C45.65 242.4 32.43 229.7 24.22 212.1C15.89 194.3 14.08 174.3 17.95 153C25.03 114.1 53.05 89.29 85.96 76.73C98.98 71.76 113.1 68.49 128 66.73V32C128 14.33 142.3 0 160 0V0z"/></symbol>
<symbol viewBox="0 0 448 512" id="ellipsis"><path d="M120 256C120 286.9 94.93 312 64 312C33.07 312 8 286.9 8 256C8 225.1 33.07 200 64 200C94.93 200 120 225.1 120 256zM280 256C280 286.9 254.9 312 224 312C193.1 312 168 286.9 168 256C168 225.1 193.1 200 224 200C254.9 200 280 225.1 280 256zM328 256C328 225.1 353.1 200 384 200C414.9 200 440 225.1 440 256C440 286.9 414.9 312 384 312C353.1 312 328 286.9 328 256z"/></symbol>
<symbol viewBox="0 0 512 512" id="facebook"><path d="M504 256C504 119 393 8 256 8S8 119 8 256c0 123.78 90.69 226.38 209.25 245V327.69h-63V256h63v-54.64c0-62.15 37-96.48 93.67-96.48 27.14 0 55.52 4.84 55.52 4.84v61h-31.28c-30.8 0-40.41 19.12-40.41 38.73V256h68.78l-11 71.69h-57.78V501C413.31 482.38 504 379.78 504 256z"/></symbol>
<symbol viewBox="0 0 496 512" id="github"><path d="M165.9 397.4c0 2-2.3 3.6-5.2 3.6-3.3.3-5.6-1.3-5.6-3.6 0-2 2.3-3.6 5.2-3.6 3-.3 5.6 1.3 5.6 3.6zm-31.1-4.5c-.7 2 1.3 4.3 4.3 4.9 2.6 1 5.6 0 6.2-2s-1.3-4.3-4.3-5.2c-2.6-.7-5.5.3-6.2 2.3zm44.2-1.7c-2.9.7-4.9 2.6-4.6 4.9.3 2 2.9 3.3 5.9 2.6 2.9-.7 4.9-2.6 4.6-4.6-.3-1.9-3-3.2-5.9-2.9zM244.8 8C106.1 8 0 113.3 0 252c0 110.9 69.8 205.8 169.5 239.2 12.8 2.3 17.3-5.6 17.3-12.1 0-6.2-.3-40.4-.3-61.4 0 0-70 15-84.7-29.8 0 0-11.4-29.1-27.8-36.6 0 0-22.9-15.7 1.6-15.4 0 0 24.9 2 38.6 25.8 21.9 38.6 58.6 27.5 72.9 20.9 2.3-16 8.8-27.1 16-33.7-55.9-6.2-112.3-14.3-112.3-110.5 0-27.5 7.6-41.3 23.6-58.9-2.6-6.5-11.1-33.3 2.6-67.9 20.9-6.5 69 27 69 27 20-5.6 41.5-8.5 62.8-8.5s42.8 2.9 62.8 8.5c0 0 48.1-33.6 69-27 13.7 34.7 5.2 61.4 2.6 67.9 16 17.7 25.8 31.5 25.8 58.9 0 96.5-58.9 104.2-114.8 110.5 9.2 7.9 17 22.9 17 46.4 0 33.7-.3 75.4-.3 83.6 0 6.5 4.6 14.4 17.3 12.1C428.2 457.8 496 362.9 496 252 496 113.3 383.5 8 244.8 8zM97.2 352.9c-1.3 1-1 3.3.7 5.2 1.6 1.6 3.9 2.3 5.2 1 1.3-1 1-3.3-.7-5.2-1.6-1.6-3.9-2.3-5.2-1zm-10.8-8.1c-.7 1.3.3 2.9 2.3 3.9 1.6 1 3.6.7 4.3-.7.7-1.3-.3-2.9-2.3-3.9-2-.6-3.6-.3-4.3.7zm32.4 35.6c-1.6 1.3-1 4.3 1.3 6.2 2.3 2.3 5.2 2.6 6.5 1 1.3-1.3.7-4.3-1.3-6.2-2.2-2.3-5.2-2.6-6.5-1zm-11.4-14.7c-1.6 1-1.6 3.6 0 5.9 1.6 2.3 4.3 3.3 5.6 2.3 1.6-1.3 1.6-3.9 0-6.2-1.4-2.3-4-3.3-5.6-2z"/></symbol>
<symbol viewBox="0 0 448 512" id="grip"><path d="M128 184C128 206.1 110.1 224 88 224H40C17.91 224 0 206.1 0 184V136C0 113.9 17.91 96 40 96H88C110.1 96 128 113.9 128 136V184zM128 376C128 398.1 110.1 416 88 416H40C17.91 416 0 398.1 0 376V328C0 305.9 17.91 288 40 288H88C110.1 288 128 305.9 128 328V376zM160 136C160 113.9 177.9 96 200 96H248C270.1 96 288 113.9 288 136V184C288 206.1 270.1 224 248 224H200C177.9 224 160 206.1 160 184V136zM288 376C288 398.1 270.1 416 248 416H200C177.9 416 160 398.1 160 376V328C160 305.9 177.9 288 200 288H248C270.1 288 288 305.9 288 328V376zM320 136C320 113.9 337.9 96 360 96H408C430.1 96 448 113.9 448 136V184C448 206.1 430.1 224 408 224H360C337.9 224 320 206.1 320 184V136zM448 376C448 398.1 430.1 416 408 416H360C337.9 416 320 398.1 320 376V328C320 305.9 337.9 288 360 288H408C430.1 288 448 305.9 448 328V376z"/></symbol>
<symbol viewBox="0 0 576 512" id="hand-holding-dollar"><path d="M568.2 336.3c-13.12-17.81-38.14-21.66-55.93-8.469l-119.7 88.17h-120.6c-8.748 0-15.1-7.25-15.1-15.99c0-8.75 7.25-16 15.1-16h78.25c15.1 0 30.75-10.88 33.37-26.62c3.25-20-12.12-37.38-31.62-37.38H191.1c-26.1 0-53.12 9.25-74.12 26.25l-46.5 37.74L15.1 383.1C7.251 383.1 0 391.3 0 400v95.98C0 504.8 7.251 512 15.1 512h346.1c22.03 0 43.92-7.188 61.7-20.27l135.1-99.52C577.5 379.1 581.3 354.1 568.2 336.3zM279.3 175C271.7 173.9 261.7 170.3 252.9 167.1L248 165.4C235.5 160.1 221.8 167.5 217.4 179.1s2.121 26.2 14.59 30.64l4.655 1.656c8.486 3.061 17.88 6.095 27.39 8.312V232c0 13.25 10.73 24 23.98 24s24-10.75 24-24V221.6c25.27-5.723 42.88-21.85 46.1-45.72c8.688-50.05-38.89-63.66-64.42-70.95L288.4 103.1C262.1 95.64 263.6 92.42 264.3 88.31c1.156-6.766 15.3-10.06 32.21-7.391c4.938 .7813 11.37 2.547 19.65 5.422c12.53 4.281 26.21-2.312 30.52-14.84s-2.309-26.19-14.84-30.53c-7.602-2.627-13.92-4.358-19.82-5.721V24c0-13.25-10.75-24-24-24s-23.98 10.75-23.98 24v10.52C238.8 40.23 221.1 56.25 216.1 80.13C208.4 129.6 256.7 143.8 274.9 149.2l6.498 1.875c31.66 9.062 31.15 11.89 30.34 16.64C310.6 174.5 296.5 177.8 279.3 175z"/></symbol>
<symbol viewBox="0 0 512 512" id="layer-group"><path d="M232.5 5.171C247.4-1.718 264.6-1.718 279.5 5.171L498.1 106.2C506.6 110.1 512 118.6 512 127.1C512 137.3 506.6 145.8 498.1 149.8L279.5 250.8C264.6 257.7 247.4 257.7 232.5 250.8L13.93 149.8C5.438 145.8 0 137.3 0 127.1C0 118.6 5.437 110.1 13.93 106.2L232.5 5.171zM498.1 234.2C506.6 238.1 512 246.6 512 255.1C512 265.3 506.6 273.8 498.1 277.8L279.5 378.8C264.6 385.7 247.4 385.7 232.5 378.8L13.93 277.8C5.438 273.8 0 265.3 0 255.1C0 246.6 5.437 238.1 13.93 234.2L67.13 209.6L219.1 279.8C242.5 290.7 269.5 290.7 292.9 279.8L444.9 209.6L498.1 234.2zM292.9 407.8L444.9 337.6L498.1 362.2C506.6 366.1 512 374.6 512 383.1C512 393.3 506.6 401.8 498.1 405.8L279.5 506.8C264.6 513.7 247.4 513.7 232.5 506.8L13.93 405.8C5.438 401.8 0 393.3 0 383.1C0 374.6 5.437 366.1 13.93 362.2L67.13 337.6L219.1 407.8C242.5 418.7 269.5 418.7 292.9 407.8V407.8z"/></symbol>
<symbol viewBox="0 0 640 512" id="link"><path d="M172.5 131.1C228.1 75.51 320.5 75.51 376.1 131.1C426.1 181.1 433.5 260.8 392.4 318.3L391.3 319.9C381 334.2 361 337.6 346.7 327.3C332.3 317 328.9 297 339.2 282.7L340.3 281.1C363.2 249 359.6 205.1 331.7 177.2C300.3 145.8 249.2 145.8 217.7 177.2L105.5 289.5C73.99 320.1 73.99 372 105.5 403.5C133.3 431.4 177.3 435 209.3 412.1L210.9 410.1C225.3 400.7 245.3 404 255.5 418.4C265.8 432.8 262.5 452.8 248.1 463.1L246.5 464.2C188.1 505.3 110.2 498.7 60.21 448.8C3.741 392.3 3.741 300.7 60.21 244.3L172.5 131.1zM467.5 380C411 436.5 319.5 436.5 263 380C213 330 206.5 251.2 247.6 193.7L248.7 192.1C258.1 177.8 278.1 174.4 293.3 184.7C307.7 194.1 311.1 214.1 300.8 229.3L299.7 230.9C276.8 262.1 280.4 306.9 308.3 334.8C339.7 366.2 390.8 366.2 422.3 334.8L534.5 222.5C566 191 566 139.1 534.5 108.5C506.7 80.63 462.7 76.99 430.7 99.9L429.1 101C414.7 111.3 394.7 107.1 384.5 93.58C374.2 79.2 377.5 59.21 391.9 48.94L393.5 47.82C451 6.731 529.8 13.25 579.8 63.24C636.3 119.7 636.3 211.3 579.8 267.7L467.5 380z"/></symbol>
<symbol viewBox="0 0 512 512" id="list-check"><path d="M152.1 38.16C161.9 47.03 162.7 62.2 153.8 72.06L81.84 152.1C77.43 156.9 71.21 159.8 64.63 159.1C58.05 160.2 51.69 157.6 47.03 152.1L7.029 112.1C-2.343 103.6-2.343 88.4 7.029 79.03C16.4 69.66 31.6 69.66 40.97 79.03L63.08 101.1L118.2 39.94C127 30.09 142.2 29.29 152.1 38.16V38.16zM152.1 198.2C161.9 207 162.7 222.2 153.8 232.1L81.84 312.1C77.43 316.9 71.21 319.8 64.63 319.1C58.05 320.2 51.69 317.6 47.03 312.1L7.029 272.1C-2.343 263.6-2.343 248.4 7.029 239C16.4 229.7 31.6 229.7 40.97 239L63.08 261.1L118.2 199.9C127 190.1 142.2 189.3 152.1 198.2V198.2zM224 96C224 78.33 238.3 64 256 64H480C497.7 64 512 78.33 512 96C512 113.7 497.7 128 480 128H256C238.3 128 224 113.7 224 96V96zM224 256C224 238.3 238.3 224 256 224H480C497.7 224 512 238.3 512 256C512 273.7 497.7 288 480 288H256C238.3 288 224 273.7 224 256zM160 416C160 398.3 174.3 384 192 384H480C497.7 384 512 398.3 512 416C512 433.7 497.7 448 480 448H192C174.3 448 160 433.7 160 416zM0 416C0 389.5 21.49 368 48 368C74.51 368 96 389.5 96 416C96 442.5 74.51 464 48 464C21.49 464 0 442.5 0 416z"/></symbol>
<symbol viewBox="0 0 448 512" id="lock"><path d="M80 192V144C80 64.47 144.5 0 224 0C303.5 0 368 64.47 368 144V192H384C419.3 192 448 220.7 448 256V448C448 483.3 419.3 512 384 512H64C28.65 512 0 483.3 0 448V256C0 220.7 28.65 192 64 192H80zM144 192H304V144C304 99.82 268.2 64 224 64C179.8 64 144 99.82 144 144V192z"/></symbol>
<symbol id="loggleft"><path d="M68.884 8.772h.272l-.408-2.346v-4.25q0-.748 1.904-1.462T74.766 0q2.312 0 2.958.884a1.461 1.461 0 0 1 .154.276 1.045 1.045 0 0 1 .084.404v24.14a.223.223 0 0 1-.111.172q-.31.229-1.493.388a17.29 17.29 0 0 1-.283.035 32.266 32.266 0 0 1-2.754.207 28.574 28.574 0 0 1-.884.014 41.752 41.752 0 0 1-.612-.004q-.973-.014-1.427-.078a2.166 2.166 0 0 1-.205-.037q-.493-.119-.612-.255a.475.475 0 0 1-.074-.118q-.057-.127-.079-.324l-.272-1.938h-.272q-.306 1.19-1.224 2.006-1.156 1.054-3.502 1.054a7.467 7.467 0 0 1-1.685-.185 6.604 6.604 0 0 1-.661-.189 7.732 7.732 0 0 1-.848-.346q-.426-.205-.768-.447a4.35 4.35 0 0 1-.169-.125 4.268 4.268 0 0 1-.762-.778 5.601 5.601 0 0 1-.445-.684q-.51-.918-.782-1.751a7.54 7.54 0 0 1-.185-.68q-.086-.382-.152-.825a15.261 15.261 0 0 1-.071-.552q-.19-1.682-.203-3.809a51.262 51.262 0 0 1-.001-.305 20.634 20.634 0 0 1 .161-2.67q.172-1.316.529-2.391a8.11 8.11 0 0 1 1.044-2.13 5.872 5.872 0 0 1 1.765-1.685q1.172-.707 2.679-.773a7.187 7.187 0 0 1 .316-.007 10.368 10.368 0 0 1 1.606.116q.837.131 1.5.413a4.083 4.083 0 0 1 1.382.933q.306.34.476.816zm-.102 12.41v-9.078q0-.34-.357-.527a2.096 2.096 0 0 0-.23-.104q-.12-.046-.228-.066a.923.923 0 0 0-.171-.017.637.637 0 0 0-.533.374q-.578.96-.62 4.38a44.88 44.88 0 0 0-.003.55 39.231 39.231 0 0 0 .02 1.308q.04 1.186.158 1.973a6.176 6.176 0 0 0 .145.714q.231.84.646 1.079a.704.704 0 0 0 .357.094q.544 0 .816-.68zm54.774 9.452V9.01a.699.699 0 0 1 .172-.433q.401-.506 1.732-1.029a10.964 10.964 0 0 1 3.532-.735 12.713 12.713 0 0 1 .582-.013q.997 0 1.571.227a2.047 2.047 0 0 1 .027.011 3.657 3.657 0 0 1 .247.112q.363.182.467.364a.896.896 0 0 1 .059.144q.147.432.451 1.896h.272a.831.831 0 0 1 .064-.174q.14-.293.548-.778.544-.646 1.105-1.054a3.473 3.473 0 0 1 .444-.27q.24-.125.532-.24a8.77 8.77 0 0 1 .639-.221 6.97 6.97 0 0 1 1.105-.237q.543-.074 1.157-.084a11.994 11.994 0 0 1 .203-.002q1.411 0 2.567.629.98.533 1.532 1.213a3.458 3.458 0 0 1 .185.249 5.408 5.408 0 0 1 .474.878q.238.553.41 1.23a20.307 20.307 0 0 1 .175.747q.147.686.19 1.179a5.331 5.331 0 0 1 .009.114 16.695 16.695 0 0 1 .022.425q.02.482.026 1.145a69.011 69.011 0 0 1 .003.64q0 1.445-.102 2.856-.102 1.411-.374 2.873a12.228 12.228 0 0 1-.284 1.201q-.181.621-.419 1.146a7.186 7.186 0 0 1-.079.169q-.51 1.054-1.292 1.904-1.445 1.571-4.137 1.69a10.196 10.196 0 0 1-.453.01 6.242 6.242 0 0 1-.964-.071 4.61 4.61 0 0 1-.957-.252q-.584-.226-.959-.511a2.161 2.161 0 0 1-.282-.254 6.523 6.523 0 0 1-.422-.5q-.405-.538-.532-.996a1.704 1.704 0 0 1-.032-.136l-.034-.34h-.272l.476 3.06v3.842a.222.222 0 0 1-.115.172q-.313.223-1.484.379a18.034 18.034 0 0 1-.356.044q-1.955.221-4.012.221-2.057 0-2.737-.187a1.765 1.765 0 0 1-.265-.094q-.415-.19-.415-.535zm9.18-18.598v8.908a1.222 1.222 0 0 0 .047.355q.119.391.537.493a1.41 1.41 0 0 0 .334.036.667.667 0 0 0 .558-.388q.632-1.043.632-4.882 0-2.89-.306-4.046-.306-1.156-.918-1.156a.837.837 0 0 0-.701.348q-.099.13-.173.308a1.853 1.853 0 0 0-.01.024zM14.076 25.092l-.238-2.21h-3.264l-.17 1.904a1.606 1.606 0 0 1-.171.642q-.253.481-.866.718-.936.361-3.315.374a32.8 32.8 0 0 1-.17 0 22.835 22.835 0 0 1-1.753-.063q-.845-.065-1.569-.198a10.615 10.615 0 0 1-.877-.198Q0 25.602 0 24.888a3.079 3.079 0 0 1 .089-.54q.431-1.927 2.937-9.881Q5.602 6.291 6.305 4.015a110.851 110.851 0 0 0 .189-.615.413.413 0 0 1 .189-.186q.503-.296 2.261-.511a29.32 29.32 0 0 1 .287-.034 45.862 45.862 0 0 1 3.355-.248 55.705 55.705 0 0 1 2.153-.041q2.422 0 3.057.692a.838.838 0 0 1 .19.328q5.799 19.267 6.365 21.425a2.154 2.154 0 0 1 .061.267.639.639 0 0 1-.083.307q-.101.186-.325.373a2.465 2.465 0 0 1-.683.362q-.714.259-1.864.344a16.687 16.687 0 0 1-1.227.042q-6.018 0-6.154-1.428zm-2.788-8.67h1.836l-.51-6.12h-.748l-.578 6.12zm35.734-.646v9.928a.223.223 0 0 1-.113.172q-.352.256-1.808.423a34.394 34.394 0 0 1-3.466.218 37.821 37.821 0 0 1-.512.003 35.549 35.549 0 0 1-.831-.009q-1.36-.032-1.838-.178a1.466 1.466 0 0 1-.25-.1q-.124-.065-.206-.148a.523.523 0 0 1-.156-.381V8.942a.605.605 0 0 1 .149-.371q.316-.402 1.3-.839a11.592 11.592 0 0 1 .438-.184q1.887-.748 4.114-.748a6.152 6.152 0 0 1 .824.051q1.458.198 1.675 1.173l.34 1.564h.238a3.141 3.141 0 0 1 .729-1.117q.356-.362.854-.682a7.356 7.356 0 0 1 .695-.394q1.802-.901 3.604-.901t2.533.578q.731.578.731 1.479a15.619 15.619 0 0 1-.016.678q-.031.702-.12 1.617a12.45 12.45 0 0 1-.234 1.454q-.165.753-.427 1.566a17.566 17.566 0 0 1-.002.006q-.354 1.097-.854 1.457a.879.879 0 0 1-.523.175 1.245 1.245 0 0 1-.179-.018q-.499-.078-1.963-.492a18.125 18.125 0 0 0-1.065-.269q-1.104-.241-1.91-.241a6.269 6.269 0 0 0-.467.016q-.769.058-.995.324a1.126 1.126 0 0 0-.217.408q-.049.164-.065.359a2.337 2.337 0 0 0-.007.185zm42.5 0v9.928a.223.223 0 0 1-.113.172q-.352.256-1.808.423a34.394 34.394 0 0 1-3.466.218 37.821 37.821 0 0 1-.512.003 35.549 35.549 0 0 1-.831-.009q-1.36-.032-1.838-.178a1.466 1.466 0 0 1-.25-.1q-.124-.065-.206-.148a.523.523 0 0 1-.156-.381V8.942a.605.605 0 0 1 .149-.371q.316-.402 1.3-.839a11.592 11.592 0 0 1 .438-.184q1.887-.748 4.114-.748a6.152 6.152 0 0 1 .824.051q1.458.198 1.675 1.173l.34 1.564h.238a3.141 3.141 0 0 1 .729-1.117q.356-.362.854-.682a7.356 7.356 0 0 1 .695-.394q1.802-.901 3.604-.901t2.533.578q.731.578.731 1.479a15.619 15.619 0 0 1-.016.678q-.031.702-.12 1.617a12.45 12.45 0 0 1-.234 1.454q-.165.753-.427 1.566a17.566 17.566 0 0 1-.002.006q-.354 1.097-.854 1.457a.879.879 0 0 1-.523.175 1.245 1.245 0 0 1-.179-.018q-.499-.078-1.963-.492a18.125 18.125 0 0 0-1.065-.269q-1.104-.241-1.91-.241a6.269 6.269 0 0 0-.467.016q-.769.058-.995.324a1.126 1.126 0 0 0-.217.408q-.049.164-.065.359a2.337 2.337 0 0 0-.007.185zm21.216 11.05q-2.55 0-4.386-.442-1.836-.442-3.332-1.564a6.546 6.546 0 0 1-2.169-2.829q-.925-2.188-.925-5.535 0-3.454 1.275-5.661a6.932 6.932 0 0 1 1.887-2.125 10.714 10.714 0 0 1 3.876-1.759q1.721-.417 3.774-.417a36.425 36.425 0 0 1 1.423.026q1.119.044 2.011.161a11.028 11.028 0 0 1 2.125.504 13.047 13.047 0 0 1 .782.295q1.479.612 2.38 1.666.722.845 1.237 2.202a12.445 12.445 0 0 1 .242.705 11.907 11.907 0 0 1 .41 1.856q.126.879.158 1.872a21.287 21.287 0 0 1 .01.675 14.553 14.553 0 0 1-.286 2.979q-.628 3.002-2.638 4.79a9.911 9.911 0 0 1-4.309 2.204q-1.518.372-3.305.396a18.412 18.412 0 0 1-.24.001zm-1.19-6.63a12.097 12.097 0 0 0 .09.424q.196.845.403 1.038a.862.862 0 0 0 .417.212 1.256 1.256 0 0 0 .263.026 1.23 1.23 0 0 0 .292-.033.854.854 0 0 0 .388-.205.612.612 0 0 0 .114-.158q.156-.292.299-.976a12.506 12.506 0 0 0 .063-.328q.221-1.224.221-3.077a67.618 67.618 0 0 0-.005-.873q-.016-1.231-.08-1.983-.085-1.003-.204-1.547-.119-.544-.323-.85a1.305 1.305 0 0 0-.192-.223q-.154-.14-.332-.191a.758.758 0 0 0-.207-.028 1.158 1.158 0 0 0-.326.044.907.907 0 0 0-.371.211q-.235.221-.445 1.18a12.443 12.443 0 0 0-.065.316q-.238 1.241-.238 3.519 0 1.878.162 3.039a8.757 8.757 0 0 0 .076.463zM35.292 8.942v16.762a.222.222 0 0 1-.115.172q-.313.223-1.484.379a18.034 18.034 0 0 1-.356.044q-1.955.221-4.012.221-1.786 0-2.47-.141a1.878 1.878 0 0 1-.182-.046 1.396 1.396 0 0 1-.246-.102q-.349-.189-.349-.527V9.554a.739.739 0 0 1 .185-.463q.366-.455 1.455-.905a10.925 10.925 0 0 1 .281-.111 11.282 11.282 0 0 1 3.151-.691 13.464 13.464 0 0 1 1.048-.04q3.094 0 3.094 1.598zM31.976.065q1.334.142 2.211.598A2.251 2.251 0 0 1 35.391 2.3a3.812 3.812 0 0 1 .071.76 2.561 2.561 0 0 1-1.444 2.443q-1.178.617-3.316.617a11.083 11.083 0 0 1-1.618-.108q-1.976-.293-2.709-1.385a2.746 2.746 0 0 1-.433-1.567A2.564 2.564 0 0 1 27.386.612Q28.554 0 30.668 0a12.357 12.357 0 0 1 1.308.065z" stroke-linecap="round" font-size="12" stroke="#f1416c" stroke-width=".945" fill="#f1416c" style="stroke:#f1416c;stroke-width:.25mm;fill:#f1416c"/></symbol>
<symbol id="logoright"><path d="M11.578 27.776H0v-5.047h11.578a1.213 1.213 0 0 0 .879-.359 1.489 1.489 0 0 0 .012-.012 1.213 1.213 0 0 0 .371-.874 1.442 1.442 0 0 0 0-.016q0-.32-.131-.508a.571.571 0 0 0-.24-.197 1.8 1.8 0 0 0-.408-.126q-.223-.041-.483-.041H6.309q-1.318 0-2.468-.501a6.36 6.36 0 0 1-2.004-1.364 6.421 6.421 0 0 1-1.345-2.013A6.212 6.212 0 0 1 0 14.253a8.274 8.274 0 0 1 0-.003 6.215 6.215 0 0 1 .484-2.45 6.06 6.06 0 0 1 .008-.018 6.31 6.31 0 0 1 1.345-2.004 6.31 6.31 0 0 1 2.004-1.345 6.212 6.212 0 0 1 2.465-.492h10.263v5.047H6.309a1.213 1.213 0 0 0-.879.36 1.489 1.489 0 0 0-.012.011 1.213 1.213 0 0 0-.371.875 1.442 1.442 0 0 0 0 .016q0 .538.371.918a1.248 1.248 0 0 0 .45.303 1.226 1.226 0 0 0 .441.078h5.269a6.882 6.882 0 0 1 2.305.383 6.57 6.57 0 0 1 .145.053 6.282 6.282 0 0 1 1.715.969 5.884 5.884 0 0 1 .288.246q.854.779 1.355 1.874.501 1.095.501 2.394a6.095 6.095 0 0 1-.398 2.207 5.84 5.84 0 0 1-.103.251 6.586 6.586 0 0 1-1.355 2.004q-.853.863-2.003 1.355a6.166 6.166 0 0 1-2.45.491zm97.654 0H97.653v-5.047h11.579a1.213 1.213 0 0 0 .879-.359 1.489 1.489 0 0 0 .011-.012 1.213 1.213 0 0 0 .371-.874 1.442 1.442 0 0 0 0-.016q0-.32-.131-.508a.571.571 0 0 0-.24-.197 1.8 1.8 0 0 0-.408-.126q-.223-.041-.482-.041h-5.27q-1.317 0-2.468-.501a6.36 6.36 0 0 1-2.004-1.364 6.421 6.421 0 0 1-1.345-2.013 6.212 6.212 0 0 1-.492-2.465 8.274 8.274 0 0 1 0-.003 6.215 6.215 0 0 1 .485-2.45 6.06 6.06 0 0 1 .007-.018 6.31 6.31 0 0 1 1.345-2.004 6.31 6.31 0 0 1 2.004-1.345 6.212 6.212 0 0 1 2.466-.492h10.263v5.047h-10.261a1.213 1.213 0 0 0-.879.36 1.489 1.489 0 0 0-.012.011 1.213 1.213 0 0 0-.371.875 1.442 1.442 0 0 0 0 .016q0 .538.371.918a1.248 1.248 0 0 0 .451.303 1.226 1.226 0 0 0 .44.078h5.27a6.882 6.882 0 0 1 2.304.383 6.57 6.57 0 0 1 .145.053 6.282 6.282 0 0 1 1.716.969 5.884 5.884 0 0 1 .288.246q.853.779 1.354 1.874.501 1.095.501 2.394a6.095 6.095 0 0 1-.397 2.207 5.84 5.84 0 0 1-.104.251 6.586 6.586 0 0 1-1.354 2.004q-.854.863-2.004 1.355a6.166 6.166 0 0 1-2.449.491zm-15.995 0-1.669-2.319a13.668 13.668 0 0 1-1.309 1.048 9.853 9.853 0 0 1-1.456.854 8.997 8.997 0 0 1-1.568.575 6.398 6.398 0 0 1-1.642.213 9.199 9.199 0 0 1-3.249-.57 8.817 8.817 0 0 1-.202-.079 8.522 8.522 0 0 1-2.83-1.846 8.344 8.344 0 0 1-1.681-2.39 9.789 9.789 0 0 1-.23-.523 9.444 9.444 0 0 1-.614-2.433 11.878 11.878 0 0 1-.082-1.417V7.904h5.047v10.985a5.627 5.627 0 0 0 .077.948 4.343 4.343 0 0 0 .229.842 4.272 4.272 0 0 0 .426.828 3.561 3.561 0 0 0 .4.499 3.453 3.453 0 0 0 1.215.816 3.957 3.957 0 0 0 1.395.277 4.521 4.521 0 0 0 .099.002 3.153 3.153 0 0 0 1.475-.362q.696-.362 1.215-.956a4.583 4.583 0 0 0 .817-1.345q.297-.751.297-1.549V7.904h5.065v19.872h-1.225zm-58.855 0h-3.841a8.625 8.625 0 0 1-3.451-.695q-1.614-.696-2.83-1.912-1.215-1.215-1.911-2.829t-.696-3.451v-5.901h-2.467V7.941h2.467V0H26.7v7.941h7.682v5.047H26.7v5.901a3.781 3.781 0 0 0 .261 1.406 3.646 3.646 0 0 0 .036.087 3.821 3.821 0 0 0 .817 1.216q.519.519 1.224.825a3.732 3.732 0 0 0 1.503.306h3.841v5.047zm39.744 0h-3.841a8.625 8.625 0 0 1-3.451-.695q-1.614-.696-2.829-1.912-1.216-1.215-1.912-2.829-.695-1.614-.695-3.451v-5.901H58.93V7.941h2.468V0h5.046v7.941h7.682v5.047h-7.682v5.901a3.781 3.781 0 0 0 .261 1.406 3.646 3.646 0 0 0 .036.087 3.821 3.821 0 0 0 .817 1.216q.519.519 1.224.825a3.732 3.732 0 0 0 1.503.306h3.841v5.047zM56.462 7.941v19.835h-1.225l-1.966-2.727a16.297 16.297 0 0 1-1.531 1.215q-.807.566-1.698.984-.89.417-1.827.658a7.599 7.599 0 0 1-1.902.241 11.069 11.069 0 0 1-3.478-.539 10.435 10.435 0 0 1-.465-.166 9.367 9.367 0 0 1-3.229-2.05q-1.382-1.345-2.18-3.293-.798-1.949-.798-4.435a11.774 11.774 0 0 1 .312-2.751 10.2 10.2 0 0 1 .486-1.507 10.36 10.36 0 0 1 1.603-2.696 9.609 9.609 0 0 1 .577-.635 9.841 9.841 0 0 1 3.229-2.161 10.139 10.139 0 0 1 3.943-.77 7.708 7.708 0 0 1 1.911.241 9.901 9.901 0 0 1 1.837.668q.89.426 1.697 1.002a14.057 14.057 0 0 1 1.513 1.243l1.966-2.357h1.225zm-5.102 9.723a5.264 5.264 0 0 0-.399-2.013 5.785 5.785 0 0 0-1.086-1.726q-.686-.751-1.605-1.206-.918-.454-1.957-.454a5.439 5.439 0 0 0-1.843.309 5.193 5.193 0 0 0-.115.043 4.457 4.457 0 0 0-1.596 1.039 4.648 4.648 0 0 0-.839 1.184 5.685 5.685 0 0 0-.227.514 5.701 5.701 0 0 0-.321 1.265 7.556 7.556 0 0 0-.069 1.045 7.394 7.394 0 0 0 .094 1.209 5.602 5.602 0 0 0 .296 1.101 5.273 5.273 0 0 0 .555 1.074 4.444 4.444 0 0 0 .511.624 4.457 4.457 0 0 0 1.596 1.039 5.399 5.399 0 0 0 1.893.352 6.09 6.09 0 0 0 .065 0q1.039 0 1.957-.454a5.397 5.397 0 0 0 1.605-1.206 5.785 5.785 0 0 0 1.086-1.726q.399-.974.399-2.013z" stroke-linecap="round" font-size="12" stroke="#00b2ff" stroke-width=".945" fill="#00b2ff" style="stroke:#00b2ff;stroke-width:.25mm;fill:#00b2ff"/></symbol>
<symbol viewBox="0 0 640 512" id="medium"><path d="M180.5,74.262C80.813,74.262,0,155.633,0,256S80.819,437.738,180.5,437.738,361,356.373,361,256,280.191,74.262,180.5,74.262Zm288.25,10.646c-49.845,0-90.245,76.619-90.245,171.095s40.406,171.1,90.251,171.1,90.251-76.619,90.251-171.1H559C559,161.5,518.6,84.908,468.752,84.908Zm139.506,17.821c-17.526,0-31.735,68.628-31.735,153.274s14.2,153.274,31.735,153.274S640,340.631,640,256C640,171.351,625.785,102.729,608.258,102.729Z"/></symbol>
<symbol viewBox="0 0 320 512" id="question"><path d="M204.3 32.01H96c-52.94 0-96 43.06-96 96c0 17.67 14.31 31.1 32 31.1s32-14.32 32-31.1c0-17.64 14.34-32 32-32h108.3C232.8 96.01 256 119.2 256 147.8c0 19.72-10.97 37.47-30.5 47.33L127.8 252.4C117.1 258.2 112 268.7 112 280v40c0 17.67 14.31 31.99 32 31.99s32-14.32 32-31.99V298.3L256 251.3c39.47-19.75 64-59.42 64-103.5C320 83.95 268.1 32.01 204.3 32.01zM144 400c-22.09 0-40 17.91-40 40s17.91 39.1 40 39.1s40-17.9 40-39.1S166.1 400 144 400z"/></symbol>
<symbol viewBox="0 0 512 512" id="reddit"><path d="M201.5 305.5c-13.8 0-24.9-11.1-24.9-24.6 0-13.8 11.1-24.9 24.9-24.9 13.6 0 24.6 11.1 24.6 24.9 0 13.6-11.1 24.6-24.6 24.6zM504 256c0 137-111 248-248 248S8 393 8 256 119 8 256 8s248 111 248 248zm-132.3-41.2c-9.4 0-17.7 3.9-23.8 10-22.4-15.5-52.6-25.5-86.1-26.6l17.4-78.3 55.4 12.5c0 13.6 11.1 24.6 24.6 24.6 13.8 0 24.9-11.3 24.9-24.9s-11.1-24.9-24.9-24.9c-9.7 0-18 5.8-22.1 13.8l-61.2-13.6c-3-.8-6.1 1.4-6.9 4.4l-19.1 86.4c-33.2 1.4-63.1 11.3-85.5 26.8-6.1-6.4-14.7-10.2-24.1-10.2-34.9 0-46.3 46.9-14.4 62.8-1.1 5-1.7 10.2-1.7 15.5 0 52.6 59.2 95.2 132 95.2 73.1 0 132.3-42.6 132.3-95.2 0-5.3-.6-10.8-1.9-15.8 31.3-16 19.8-62.5-14.9-62.5zM302.8 331c-18.2 18.2-76.1 17.9-93.6 0-2.2-2.2-6.1-2.2-8.3 0-2.5 2.5-2.5 6.4 0 8.6 22.8 22.8 87.3 22.8 110.2 0 2.5-2.2 2.5-6.1 0-8.6-2.2-2.2-6.1-2.2-8.3 0zm7.7-75c-13.6 0-24.6 11.1-24.6 24.9 0 13.6 11.1 24.6 24.6 24.6 13.8 0 24.9-11.1 24.9-24.6 0-13.8-11-24.9-24.9-24.9z"/></symbol>
<symbol viewBox="0 0 496 512" id="telegram"><path d="M248,8C111.033,8,0,119.033,0,256S111.033,504,248,504,496,392.967,496,256,384.967,8,248,8ZM362.952,176.66c-3.732,39.215-19.881,134.378-28.1,178.3-3.476,18.584-10.322,24.816-16.948,25.425-14.4,1.326-25.338-9.517-39.287-18.661-21.827-14.308-34.158-23.215-55.346-37.177-24.485-16.135-8.612-25,5.342-39.5,3.652-3.793,67.107-61.51,68.335-66.746.153-.655.3-3.1-1.154-4.384s-3.59-.849-5.135-.5q-3.283.746-104.608,69.142-14.845,10.194-26.894,9.934c-8.855-.191-25.888-5.006-38.551-9.123-15.531-5.048-27.875-7.717-26.8-16.291q.84-6.7,18.45-13.7,108.446-47.248,144.628-62.3c68.872-28.647,83.183-33.623,92.511-33.789,2.052-.034,6.639.474,9.61,2.885a10.452,10.452,0,0,1,3.53,6.716A43.765,43.765,0,0,1,362.952,176.66Z"/></symbol>
<symbol viewBox="0 0 512 512" id="twitter"><path d="M459.37 151.716c.325 4.548.325 9.097.325 13.645 0 138.72-105.583 298.558-298.558 298.558-59.452 0-114.68-17.219-161.137-47.106 8.447.974 16.568 1.299 25.34 1.299 49.055 0 94.213-16.568 130.274-44.832-46.132-.975-84.792-31.188-98.112-72.772 6.498.974 12.995 1.624 19.818 1.624 9.421 0 18.843-1.3 27.614-3.573-48.081-9.747-84.143-51.98-84.143-102.985v-1.299c13.969 7.797 30.214 12.67 47.431 13.319-28.264-18.843-46.781-51.005-46.781-87.391 0-19.492 5.197-37.36 14.294-52.954 51.655 63.675 129.3 105.258 216.365 109.807-1.624-7.797-2.599-15.918-2.599-24.04 0-57.828 46.782-104.934 104.934-104.934 30.213 0 57.502 12.67 76.67 33.137 23.715-4.548 46.456-13.32 66.599-25.34-7.798 24.366-24.366 44.833-46.132 57.827 21.117-2.273 41.584-8.122 60.426-16.243-14.292 20.791-32.161 39.308-52.628 54.253z"/></symbol>
<symbol viewBox="0 0 640 512" id="user-plus"><path d="M224 256c70.7 0 128-57.31 128-128S294.7 0 224 0C153.3 0 96 57.31 96 128S153.3 256 224 256zM274.7 304H173.3C77.61 304 0 381.6 0 477.3C0 496.5 15.52 512 34.66 512h378.7C432.5 512 448 496.5 448 477.3C448 381.6 370.4 304 274.7 304zM616 200h-48v-48C568 138.8 557.3 128 544 128s-24 10.75-24 24v48h-48C458.8 200 448 210.8 448 224s10.75 24 24 24h48v48C520 309.3 530.8 320 544 320s24-10.75 24-24v-48h48C629.3 248 640 237.3 640 224S629.3 200 616 200z"/></symbol>
<symbol viewBox="0 0 640 512" id="users"><path d="M319.9 320c57.41 0 103.1-46.56 103.1-104c0-57.44-46.54-104-103.1-104c-57.41 0-103.1 46.56-103.1 104C215.9 273.4 262.5 320 319.9 320zM369.9 352H270.1C191.6 352 128 411.7 128 485.3C128 500.1 140.7 512 156.4 512h327.2C499.3 512 512 500.1 512 485.3C512 411.7 448.4 352 369.9 352zM512 160c44.18 0 80-35.82 80-80S556.2 0 512 0c-44.18 0-80 35.82-80 80S467.8 160 512 160zM183.9 216c0-5.449 .9824-10.63 1.609-15.91C174.6 194.1 162.6 192 149.9 192H88.08C39.44 192 0 233.8 0 285.3C0 295.6 7.887 304 17.62 304h199.5C196.7 280.2 183.9 249.7 183.9 216zM128 160c44.18 0 80-35.82 80-80S172.2 0 128 0C83.82 0 48 35.82 48 80S83.82 160 128 160zM551.9 192h-61.84c-12.8 0-24.88 3.037-35.86 8.24C454.8 205.5 455.8 210.6 455.8 216c0 33.71-12.78 64.21-33.16 88h199.7C632.1 304 640 295.6 640 285.3C640 233.8 600.6 192 551.9 192z"/></symbol>
<symbol viewBox="0 0 512 512" id="wallet"><path d="M448 32C465.7 32 480 46.33 480 64C480 81.67 465.7 96 448 96H80C71.16 96 64 103.2 64 112C64 120.8 71.16 128 80 128H448C483.3 128 512 156.7 512 192V416C512 451.3 483.3 480 448 480H64C28.65 480 0 451.3 0 416V96C0 60.65 28.65 32 64 32H448zM416 336C433.7 336 448 321.7 448 304C448 286.3 433.7 272 416 272C398.3 272 384 286.3 384 304C384 321.7 398.3 336 416 336z"/></symbol>
</svg>