<svg xmlns="http://www.w3.org/2000/svg" xmlns:xlink="http://www.w3.org/1999/xlink" width="500" zoomAndPan="magnify" viewBox="0 0 375 374.999991" height="500" preserveAspectRatio="xMidYMid meet" version="1.0"><defs><clipPath id="445aa2cf4f"><path d="M 165 23 L 363 23 L 363 347 L 165 347 Z M 165 23 " clip-rule="nonzero"/></clipPath><clipPath id="663f535727"><path d="M 13.65625 21.472656 L 362.40625 20.664062 L 363.167969 348.410156 L 14.417969 349.222656 Z M 13.65625 21.472656 " clip-rule="nonzero"/></clipPath><clipPath id="29f8ec81a8"><path d="M 13.65625 21.472656 L 362.40625 20.664062 L 363.167969 348.410156 L 14.417969 349.222656 Z M 13.65625 21.472656 " clip-rule="nonzero"/></clipPath><clipPath id="370e59791d"><path d="M 13 23 L 212 23 L 212 347 L 13 347 Z M 13 23 " clip-rule="nonzero"/></clipPath><clipPath id="0d8369c4c9"><path d="M 13.65625 21.472656 L 362.40625 20.664062 L 363.167969 348.410156 L 14.417969 349.222656 Z M 13.65625 21.472656 " clip-rule="nonzero"/></clipPath><clipPath id="3c19b42c9f"><path d="M 13.65625 21.472656 L 362.40625 20.664062 L 363.167969 348.410156 L 14.417969 349.222656 Z M 13.65625 21.472656 " clip-rule="nonzero"/></clipPath></defs><g clip-path="url(#445aa2cf4f)"><g clip-path="url(#663f535727)"><g clip-path="url(#29f8ec81a8)"><path fill="#20d489" d="M 229.9375 152.203125 C 229.945312 152.203125 229.945312 152.203125 229.945312 152.203125 C 232.042969 152.199219 233.742188 153.890625 233.75 155.988281 C 233.75 156.003906 233.742188 156.011719 233.742188 156.027344 L 233.933594 239.328125 C 233.933594 239.34375 233.855469 201.453125 233.855469 201.46875 L 234.035156 279.695312 C 234.113281 313.972656 259.992188 343.894531 294.207031 346.109375 C 331.726562 348.535156 363 318.660156 362.914062 281.675781 L 362.464844 87.480469 C 362.382812 52.578125 334.5 23.578125 299.585938 23.210938 C 225.648438 22.449219 165.347656 82.445312 165.519531 156.148438 L 165.59375 189.445312 C 165.597656 190.226562 166.597656 190.464844 166.96875 189.777344 C 179.171875 167.476562 202.773438 152.273438 229.9375 152.203125 Z M 229.9375 152.203125 " fill-opacity="1" fill-rule="nonzero"/></g></g></g><g clip-path="url(#370e59791d)"><g clip-path="url(#0d8369c4c9)"><g clip-path="url(#3c19b42c9f)"><path fill="#00b2ff" d="M 143.101562 213.960938 L 142.941406 145.746094 L 142.8125 90.253906 C 142.734375 55.96875 116.847656 26.046875 82.628906 23.84375 C 45.105469 21.421875 13.847656 51.304688 13.933594 88.28125 L 14.386719 282.476562 C 14.464844 317.378906 42.351562 346.386719 77.261719 346.746094 C 151.199219 347.507812 211.5 287.511719 211.332031 213.8125 L 211.253906 180.507812 C 211.25 179.722656 210.257812 179.484375 209.878906 180.171875 C 197.660156 202.496094 174.015625 217.710938 146.8125 217.746094 C 144.765625 217.75 143.105469 216.015625 143.101562 213.960938 Z M 143.101562 213.960938 " fill-opacity="1" fill-rule="nonzero"/></g></g></g></svg>