<svg xmlns="http://www.w3.org/2000/svg" xmlns:xlink="http://www.w3.org/1999/xlink" width="300" zoomAndPan="magnify" viewBox="0 0 224.87999 95.999999" height="128" preserveAspectRatio="xMidYMid meet" version="1.0"><defs><g/><clipPath id="d2b5c198db"><path d="M 44 15 L 84 15 L 84 81 L 44 81 Z M 44 15 " clip-rule="nonzero"/></clipPath><clipPath id="b3eb8c7962"><path d="M 13.652344 15.488281 L 83.363281 15.328125 L 83.515625 80.542969 L 13.800781 80.703125 Z M 13.652344 15.488281 " clip-rule="nonzero"/></clipPath><clipPath id="6911766c8c"><path d="M 13.652344 15.488281 L 83.363281 15.328125 L 83.515625 80.542969 L 13.800781 80.703125 Z M 13.652344 15.488281 " clip-rule="nonzero"/></clipPath><clipPath id="991485e08a"><path d="M 13 15 L 54 15 L 54 81 L 13 81 Z M 13 15 " clip-rule="nonzero"/></clipPath><clipPath id="a6fecf1ec5"><path d="M 13.652344 15.488281 L 83.363281 15.328125 L 83.515625 80.542969 L 13.800781 80.703125 Z M 13.652344 15.488281 " clip-rule="nonzero"/></clipPath><clipPath id="f2504425ef"><path d="M 13.652344 15.488281 L 83.363281 15.328125 L 83.515625 80.542969 L 13.800781 80.703125 Z M 13.652344 15.488281 " clip-rule="nonzero"/></clipPath></defs><g clip-path="url(#d2b5c198db)"><g clip-path="url(#b3eb8c7962)"><g clip-path="url(#6911766c8c)"><path fill="#20d489" d="M 56.882812 41.5 C 56.886719 41.5 56.886719 41.5 56.886719 41.5 C 57.304688 41.5 57.644531 41.835938 57.644531 42.253906 C 57.644531 42.257812 57.644531 42.257812 57.644531 42.261719 L 57.683594 58.835938 C 57.683594 58.839844 57.667969 51.300781 57.667969 51.304688 L 57.703125 66.871094 C 57.71875 73.691406 62.890625 79.644531 69.730469 80.085938 C 77.230469 80.566406 83.484375 74.621094 83.464844 67.261719 L 83.375 28.621094 C 83.359375 21.679688 77.785156 15.90625 70.808594 15.835938 C 56.027344 15.683594 43.972656 27.621094 44.007812 42.285156 L 44.019531 48.910156 C 44.023438 49.066406 44.222656 49.113281 44.296875 48.976562 C 46.734375 44.539062 51.453125 41.515625 56.882812 41.5 Z M 56.882812 41.5 " fill-opacity="1" fill-rule="nonzero"/></g></g></g><g clip-path="url(#991485e08a)"><g clip-path="url(#a6fecf1ec5)"><g clip-path="url(#f2504425ef)"><path fill="#00b2ff" d="M 39.523438 53.789062 L 39.492188 40.21875 L 39.46875 29.175781 C 39.453125 22.351562 34.277344 16.398438 27.4375 15.960938 C 19.933594 15.480469 13.6875 21.425781 13.703125 28.785156 L 13.792969 67.421875 C 13.808594 74.367188 19.382812 80.140625 26.363281 80.210938 C 41.144531 80.363281 53.199219 68.425781 53.164062 53.761719 L 53.148438 47.132812 C 53.148438 46.976562 52.949219 46.929688 52.875 47.066406 C 50.429688 51.507812 45.703125 54.535156 40.265625 54.542969 C 39.859375 54.542969 39.523438 54.199219 39.523438 53.789062 Z M 39.523438 53.789062 " fill-opacity="1" fill-rule="nonzero"/></g></g></g><g fill="#00b2ff" fill-opacity="1"><g transform="translate(89.796434, 43.559278)"><g><path d="M 10.90625 -0.984375 C 10.90625 -0.691406 10.203125 -0.453125 8.796875 -0.265625 C 7.398438 -0.0859375 6.003906 0 4.609375 0 C 3.222656 0 2.335938 -0.078125 1.953125 -0.234375 C 1.566406 -0.398438 1.375 -0.648438 1.375 -0.984375 L 1.375 -21.984375 C 1.375 -22.554688 2.023438 -23.078125 3.328125 -23.546875 C 4.640625 -24.023438 6.128906 -24.265625 7.796875 -24.265625 C 8.390625 -24.265625 8.832031 -24.242188 9.125 -24.203125 C 9.90625 -24.085938 10.453125 -23.597656 10.765625 -22.734375 L 14.046875 -13.921875 L 14.1875 -13.921875 L 14.1875 -21.984375 C 14.1875 -22.554688 14.832031 -23.078125 16.125 -23.546875 C 17.425781 -24.023438 18.910156 -24.265625 20.578125 -24.265625 C 22.015625 -24.265625 22.925781 -23.992188 23.3125 -23.453125 C 23.582031 -23.066406 23.71875 -22.710938 23.71875 -22.390625 L 23.71875 -0.984375 C 23.71875 -0.691406 23.015625 -0.453125 21.609375 -0.265625 C 20.210938 -0.0859375 18.675781 0 17 0 C 15.332031 0 14.414062 -0.21875 14.25 -0.65625 L 11.078125 -9.0625 L 10.90625 -9.0625 Z M 10.90625 -0.984375 "/></g></g></g><g fill="#00b2ff" fill-opacity="1"><g transform="translate(114.204206, 43.559278)"><g><path d="M 10.796875 -1.75 C 10.753906 -1.082031 10.40625 -0.625 9.75 -0.375 C 9.101562 -0.125 7.9375 0 6.25 0 C 4.5625 0 3.15625 -0.148438 2.03125 -0.453125 C 0.90625 -0.765625 0.34375 -1.160156 0.34375 -1.640625 C 0.34375 -2.191406 1.351562 -5.6875 3.375 -12.125 C 5.40625 -18.5625 6.570312 -22.269531 6.875 -23.25 C 6.988281 -23.539062 7.90625 -23.78125 9.625 -23.96875 C 11.34375 -24.164062 13.1875 -24.265625 15.15625 -24.265625 C 17.132812 -24.265625 18.222656 -23.925781 18.421875 -23.25 C 22.734375 -8.9375 24.890625 -1.664062 24.890625 -1.4375 C 24.890625 -1.207031 24.753906 -0.976562 24.484375 -0.75 C 23.835938 -0.25 22.570312 0 20.6875 0 C 16.644531 0 14.582031 -0.476562 14.5 -1.4375 L 14.25 -3.65625 L 10.96875 -3.65625 Z M 13.53125 -10.15625 L 13.03125 -16.3125 L 12.265625 -16.3125 L 11.6875 -10.15625 Z M 13.53125 -10.15625 "/></g></g></g><g fill="#00b2ff" fill-opacity="1"><g transform="translate(138.748713, 43.559278)"><g><path d="M 6.625 0 C 6.0625 0 5.238281 0 4.15625 0 C 3.070312 0 2.335938 -0.078125 1.953125 -0.234375 C 1.566406 -0.398438 1.375 -0.648438 1.375 -0.984375 L 1.375 -22.5625 C 1.375 -23.082031 2.070312 -23.492188 3.46875 -23.796875 C 4.875 -24.109375 6.375 -24.265625 7.96875 -24.265625 C 9.5625 -24.265625 10.695312 -24.0625 11.375 -23.65625 C 12.0625 -23.25 12.460938 -22.816406 12.578125 -22.359375 L 14.90625 -13.328125 L 15.21875 -13.328125 L 17.40625 -21.953125 C 17.5625 -22.566406 18.304688 -23.101562 19.640625 -23.5625 C 20.972656 -24.03125 22.4375 -24.265625 24.03125 -24.265625 C 25.625 -24.265625 26.800781 -24.140625 27.5625 -23.890625 C 28.332031 -23.640625 28.71875 -23.320312 28.71875 -22.9375 L 28.71875 -0.984375 C 28.71875 -0.691406 28.066406 -0.453125 26.765625 -0.265625 C 25.460938 -0.0859375 23.878906 0 22.015625 0 C 20.148438 0 19.21875 -0.328125 19.21875 -0.984375 C 19.21875 -2.785156 19.410156 -5.988281 19.796875 -10.59375 L 19.484375 -10.59375 L 17.703125 -1.671875 C 17.640625 -1.328125 17.363281 -1.078125 16.875 -0.921875 C 16.382812 -0.765625 15.648438 -0.6875 14.671875 -0.6875 C 13.691406 -0.6875 13.09375 -0.753906 12.875 -0.890625 C 12.65625 -1.023438 12.507812 -1.285156 12.4375 -1.671875 L 10.59375 -10.59375 L 10.296875 -10.59375 C 10.703125 -5.90625 10.90625 -2.703125 10.90625 -0.984375 C 10.90625 -0.398438 9.476562 -0.0703125 6.625 0 Z M 6.625 0 "/></g></g></g><g fill="#00b2ff" fill-opacity="1"><g transform="translate(168.14748, 43.559278)"><g><path d="M 18.703125 0 L 4.203125 0 C 3.085938 0 2.335938 -0.078125 1.953125 -0.234375 C 1.566406 -0.398438 1.375 -0.648438 1.375 -0.984375 L 1.375 -22.625 C 1.375 -23.21875 1.640625 -23.640625 2.171875 -23.890625 C 2.703125 -24.140625 3.664062 -24.265625 5.0625 -24.265625 L 18.796875 -24.265625 C 19.273438 -24.265625 19.515625 -23.472656 19.515625 -21.890625 C 19.515625 -20.304688 19.410156 -19.097656 19.203125 -18.265625 C 19.003906 -17.441406 18.734375 -17.03125 18.390625 -17.03125 C 16.910156 -17.03125 14.414062 -17.175781 10.90625 -17.46875 L 10.90625 -15.171875 C 14.28125 -15.316406 16.476562 -15.390625 17.5 -15.390625 C 18.113281 -15.390625 18.421875 -14.671875 18.421875 -13.234375 C 18.421875 -11.796875 18.300781 -10.707031 18.0625 -9.96875 C 17.820312 -9.226562 17.5 -8.859375 17.09375 -8.859375 L 10.90625 -8.984375 L 10.90625 -6.796875 C 14.875 -7.097656 17.609375 -7.25 19.109375 -7.25 C 19.585938 -7.25 19.828125 -6.453125 19.828125 -4.859375 C 19.828125 -3.265625 19.722656 -2.054688 19.515625 -1.234375 C 19.316406 -0.410156 19.046875 0 18.703125 0 Z M 18.703125 0 "/></g></g></g><g fill="#00b2ff" fill-opacity="1"><g transform="translate(188.316315, 43.559278)"><g><path d="M 18.765625 -1.4375 C 18.085938 -0.9375 17.132812 -0.519531 15.90625 -0.1875 C 14.6875 0.144531 13.113281 0.3125 11.1875 0.3125 C 9.269531 0.3125 7.441406 0.148438 5.703125 -0.171875 C 3.972656 -0.492188 2.734375 -0.847656 1.984375 -1.234375 C 1.234375 -1.617188 0.859375 -1.992188 0.859375 -2.359375 C 0.859375 -3.640625 1.039062 -4.96875 1.40625 -6.34375 C 1.769531 -7.71875 2.203125 -8.40625 2.703125 -8.40625 C 2.796875 -8.40625 3.738281 -8.097656 5.53125 -7.484375 C 7.332031 -6.867188 8.6875 -6.5625 9.59375 -6.5625 C 10.507812 -6.5625 11.101562 -6.65625 11.375 -6.84375 C 11.65625 -7.039062 11.796875 -7.320312 11.796875 -7.6875 C 11.796875 -8.050781 11.546875 -8.375 11.046875 -8.65625 C 10.546875 -8.945312 9.914062 -9.203125 9.15625 -9.421875 C 8.40625 -9.640625 7.59375 -9.953125 6.71875 -10.359375 C 5.84375 -10.765625 5.023438 -11.21875 4.265625 -11.71875 C 3.515625 -12.226562 2.890625 -12.941406 2.390625 -13.859375 C 1.890625 -14.785156 1.640625 -15.84375 1.640625 -17.03125 C 1.640625 -22.082031 4.660156 -24.609375 10.703125 -24.609375 C 12.953125 -24.609375 14.898438 -24.46875 16.546875 -24.1875 C 18.191406 -23.90625 19.347656 -23.585938 20.015625 -23.234375 C 20.691406 -22.878906 21.03125 -22.53125 21.03125 -22.1875 C 21.03125 -21 20.75 -19.722656 20.1875 -18.359375 C 19.625 -16.992188 19.082031 -16.3125 18.5625 -16.3125 C 18.46875 -16.3125 18.171875 -16.410156 17.671875 -16.609375 C 16.171875 -17.273438 14.921875 -17.609375 13.921875 -17.609375 C 12.929688 -17.609375 12.257812 -17.515625 11.90625 -17.328125 C 11.5625 -17.148438 11.390625 -16.875 11.390625 -16.5 C 11.390625 -16.125 11.640625 -15.816406 12.140625 -15.578125 C 12.640625 -15.335938 13.257812 -15.117188 14 -14.921875 C 14.738281 -14.722656 15.546875 -14.425781 16.421875 -14.03125 C 17.304688 -13.632812 18.125 -13.164062 18.875 -12.625 C 19.625 -12.09375 20.25 -11.335938 20.75 -10.359375 C 21.25 -9.378906 21.5 -8.238281 21.5 -6.9375 C 21.5 -5.570312 21.144531 -4.332031 20.4375 -3.21875 C 20.007812 -2.53125 19.453125 -1.9375 18.765625 -1.4375 Z M 18.765625 -1.4375 "/></g></g></g><g fill="#20d489" fill-opacity="1"><g transform="translate(89.386777, 73.226183)"><g><path d="M 16.984375 0 L 2.03125 0 L 2.03125 -21.828125 L 16.984375 -21.828125 L 16.984375 -17.453125 L 6.390625 -17.453125 L 6.390625 -13.09375 L 13.5625 -13.09375 L 13.5625 -8.71875 L 6.390625 -8.71875 L 6.390625 -4.375 L 16.984375 -4.375 Z M 16.984375 0 "/></g></g></g><g fill="#20d489" fill-opacity="1"><g transform="translate(108.616214, 73.226183)"><g><path d="M 0.75 -15.28125 C 0.75 -16.1875 0.921875 -17.035156 1.265625 -17.828125 C 1.609375 -18.617188 2.078125 -19.3125 2.671875 -19.90625 C 3.265625 -20.5 3.957031 -20.96875 4.75 -21.3125 C 5.539062 -21.65625 6.390625 -21.828125 7.296875 -21.828125 L 17.3125 -21.828125 L 17.3125 -17.453125 L 7.296875 -17.453125 C 6.984375 -17.453125 6.695312 -17.394531 6.4375 -17.28125 C 6.175781 -17.175781 5.945312 -17.023438 5.75 -16.828125 C 5.550781 -16.628906 5.394531 -16.394531 5.28125 -16.125 C 5.164062 -15.863281 5.109375 -15.582031 5.109375 -15.28125 C 5.109375 -14.976562 5.164062 -14.691406 5.28125 -14.421875 C 5.394531 -14.148438 5.550781 -13.914062 5.75 -13.71875 C 5.945312 -13.519531 6.175781 -13.363281 6.4375 -13.25 C 6.695312 -13.144531 6.984375 -13.09375 7.296875 -13.09375 L 11.65625 -13.09375 C 12.5625 -13.09375 13.410156 -12.921875 14.203125 -12.578125 C 15.003906 -12.234375 15.703125 -11.765625 16.296875 -11.171875 C 16.890625 -10.585938 17.351562 -9.894531 17.6875 -9.09375 C 18.03125 -8.300781 18.203125 -7.453125 18.203125 -6.546875 C 18.203125 -5.640625 18.03125 -4.789062 17.6875 -4 C 17.351562 -3.207031 16.890625 -2.515625 16.296875 -1.921875 C 15.703125 -1.328125 15.003906 -0.859375 14.203125 -0.515625 C 13.410156 -0.171875 12.5625 0 11.65625 0 L 1.96875 0 L 1.96875 -4.375 L 11.65625 -4.375 C 11.957031 -4.375 12.238281 -4.425781 12.5 -4.53125 C 12.769531 -4.644531 13.003906 -4.800781 13.203125 -5 C 13.398438 -5.195312 13.550781 -5.425781 13.65625 -5.6875 C 13.769531 -5.957031 13.828125 -6.242188 13.828125 -6.546875 C 13.828125 -6.847656 13.769531 -7.128906 13.65625 -7.390625 C 13.550781 -7.660156 13.398438 -7.894531 13.203125 -8.09375 C 13.003906 -8.289062 12.769531 -8.441406 12.5 -8.546875 C 12.238281 -8.660156 11.957031 -8.71875 11.65625 -8.71875 L 7.296875 -8.71875 C 6.390625 -8.71875 5.539062 -8.890625 4.75 -9.234375 C 3.957031 -9.578125 3.265625 -10.046875 2.671875 -10.640625 C 2.078125 -11.234375 1.609375 -11.925781 1.265625 -12.71875 C 0.921875 -13.519531 0.75 -14.375 0.75 -15.28125 Z M 0.75 -15.28125 "/></g></g></g><g fill="#20d489" fill-opacity="1"><g transform="translate(128.865016, 73.226183)"><g><path d="M 11.1875 0 L 6.828125 0 L 6.828125 -17.453125 L 0.28125 -17.453125 L 0.28125 -21.828125 L 17.734375 -21.828125 L 17.734375 -17.453125 L 11.1875 -17.453125 Z M 11.1875 0 "/></g></g></g><g fill="#20d489" fill-opacity="1"><g transform="translate(148.094452, 73.226183)"><g><path d="M 14.875 -8.71875 L 14.875 -13.09375 C 14.875 -13.6875 14.757812 -14.25 14.53125 -14.78125 C 14.300781 -15.320312 13.988281 -15.785156 13.59375 -16.171875 C 13.195312 -16.566406 12.734375 -16.878906 12.203125 -17.109375 C 11.671875 -17.335938 11.101562 -17.453125 10.5 -17.453125 C 9.90625 -17.453125 9.335938 -17.335938 8.796875 -17.109375 C 8.265625 -16.878906 7.800781 -16.566406 7.40625 -16.171875 C 7.007812 -15.785156 6.695312 -15.320312 6.46875 -14.78125 C 6.25 -14.25 6.140625 -13.6875 6.140625 -13.09375 L 6.140625 -8.71875 Z M 19.234375 0 L 14.875 0 L 14.875 -4.375 L 6.140625 -4.375 L 6.140625 0 L 1.78125 0 L 1.78125 -13.09375 C 1.78125 -14.300781 2.007812 -15.429688 2.46875 -16.484375 C 2.925781 -17.546875 3.546875 -18.472656 4.328125 -19.265625 C 5.117188 -20.054688 6.039062 -20.679688 7.09375 -21.140625 C 8.15625 -21.597656 9.289062 -21.828125 10.5 -21.828125 C 11.707031 -21.828125 12.84375 -21.597656 13.90625 -21.140625 C 14.96875 -20.679688 15.894531 -20.054688 16.6875 -19.265625 C 17.476562 -18.472656 18.097656 -17.546875 18.546875 -16.484375 C 19.003906 -15.429688 19.234375 -14.300781 19.234375 -13.09375 Z M 19.234375 0 "/></g></g></g><g fill="#20d489" fill-opacity="1"><g transform="translate(170.305897, 73.226183)"><g><path d="M 11.1875 0 L 6.828125 0 L 6.828125 -17.453125 L 0.28125 -17.453125 L 0.28125 -21.828125 L 17.734375 -21.828125 L 17.734375 -17.453125 L 11.1875 -17.453125 Z M 11.1875 0 "/></g></g></g><g fill="#20d489" fill-opacity="1"><g transform="translate(189.53533, 73.226183)"><g><path d="M 16.984375 0 L 2.03125 0 L 2.03125 -21.828125 L 16.984375 -21.828125 L 16.984375 -17.453125 L 6.390625 -17.453125 L 6.390625 -13.09375 L 13.5625 -13.09375 L 13.5625 -8.71875 L 6.390625 -8.71875 L 6.390625 -4.375 L 16.984375 -4.375 Z M 16.984375 0 "/></g></g></g></svg>