<svg fill="currentColor" width="40" height="40" viewBox="0 0 40 40" xmlns="http://www.w3.org/2000/svg" class=""><path d="M23.6923 27.0769C23.6923 25.3776 25.0699 24 26.7692 24H28C29.6993 24 31.0769 25.3776 31.0769 27.0769V28.3077C31.0769 30.007 29.6993 31.3846 28 31.3846H26.7692C25.0699 31.3846 23.6923 30.007 23.6923 28.3077V27.0769Z" fill="#1EEFA4"></path><path d="M26.7692 12.9231C25.0699 12.9231 23.6923 14.3007 23.6923 16V17.2308C23.6923 18.9301 25.0699 20.3077 26.7692 20.3077H28C29.6993 20.3077 31.0769 18.9301 31.0769 17.2308V16C31.0769 14.3007 29.6993 12.9231 28 12.9231H26.7692Z" fill="#1EEFA4"></path><path fill-rule="evenodd" clip-rule="evenodd" d="M12.6154 0C5.81804 0 0.307693 5.51034 0.307693 12.3077V27.6923C0.307693 34.4897 5.81803 40 12.6154 40H28C34.7974 40 40.3077 34.4897 40.3077 27.6923V12.3077C40.3077 5.51034 34.7974 0 28 0H12.6154ZM28 4.92308H12.6154C8.53697 4.92308 5.23077 8.22928 5.23077 12.3077V27.6923C5.23077 31.7707 8.53697 35.0769 12.6154 35.0769H28C32.0784 35.0769 35.3846 31.7707 35.3846 27.6923V12.3077C35.3846 8.22928 32.0784 4.92308 28 4.92308Z" fill="#1EEFA4"></path></svg>