<svg xmlns="http://www.w3.org/2000/svg" width="150" height="150" viewBox="0 0 150 150" fill="none">
<path opacity="0.2" d="M108.055 58.5208C108.055 76.6942 93.3222 91.4268 75.1487 91.4268" stroke="#00E075" stroke-width="16.453"/>
<path d="M108.055 91.4267C108.055 73.2533 93.3222 58.5208 75.1487 58.5208" stroke="white" stroke-width="16.453"/>
<path d="M108.054 91.4268C108.054 109.6 93.3219 124.333 75.1484 124.333" stroke="white" stroke-width="16.453"/>
<path opacity="0.2" d="M42.2425 91.4268C42.2425 109.6 56.975 124.333 75.1484 124.333" stroke="#00E075" stroke-width="16.453"/>
<path opacity="0.2" d="M42.2422 58.5208C42.2422 76.6942 56.9747 91.4268 75.1482 91.4268" stroke="#00E075" stroke-width="16.453"/>
<path d="M42.2422 91.4267C42.2422 73.2533 56.9747 58.5208 75.1482 58.5208" stroke="#00E075" stroke-width="16.453"/>
<path d="M42.2422 58.5207C42.2422 40.3473 56.9747 25.6147 75.1482 25.6147" stroke="#00E075" stroke-width="16.453"/>
<path opacity="0.2" d="M108.055 58.5207C108.055 40.3473 93.3222 25.6147 75.1487 25.6147" stroke="#00E075" stroke-width="16.453"/>
<path d="M34.0156 58.5208H50.4686V116.106C50.4686 125.193 43.1024 132.559 34.0156 132.559V58.5208Z" fill="#00E075"/>
</svg>