<svg xmlns="http://www.w3.org/2000/svg" version="1.2" viewBox="0 0 200 156" width="156" height="156">
	
	<style>
		.s0 { fill: #ffffff }
		.s1 { fill: #606060 }
		.s2 { fill: #ffffff }
		.s3 { fill: #ffffff }
	</style>
	<g id="Layer 1">
		
		
		
		<g id="&lt;Group&gt;">
			<path id="&lt;Path&gt;" class="s0" d="m123.8 138.2l-15.4 9-54.5-31.5v-16.7-1.2-15.6l15.7 9.2v15.5l36.1 20.8 12.7 7.3z"/>
			<path id="&lt;Path&gt;" class="s0" d="m162.3 82.3v15.5 1.2 0.1 16.5l-35.9 21-15.5-8.9 30.1-17.6 2.8-1.6q0.5-0.3 0.9-0.5l1.9-1.1v-15.5-0.1z"/>
			<path id="&lt;Path&gt;" class="s0" d="m108.1 31l-35.9 20.7v-17.9l36-20.8 35.8 21v17.7q-0.1 0-0.2-0.1l-23.6-13.6z"/>
			<path id="&lt;Path&gt;" class="s0" d="m105.3 90.8l-15.5 8.9-17.6-10.3-0.6-0.4-0.7-0.4-1.3-0.7-15.7-9.2v-1.2-15.2-1.6-0.1-16.2l15.7-9.1v16.2 1.8 16.6l1.1 0.7q0.1 0 0.2 0.1 0.7 0.4 1.3 0.8 0.1 0 0.2 0.1l2.8 1.6 9.8 5.7 1.3 0.8 1.3 0.8z"/>
			<path id="&lt;Path&gt;" class="s0" d="m162.3 44.7v16.2 1.8 15 1.1l-15.7 9.1-1.3 0.7-1.3 0.8-36.2 20.9-15.4-9.1 36.1-20.8 1.3-0.7 1.3-0.8 12.9-7.4 1.3-0.8 1.3-0.8v-16.4-1.8-16.2z"/>
			<path id="&lt;Path&gt;" class="s0" d="m162.7 33.2l10.4 6.9v11.8l-4.7 1.2v-11.3l-9.2-5.4z"/>
			<path id="&lt;Path&gt;" class="s0" d="m54.5 127.2l-10.3-6.9v-11.8l4.7-1.3v11.4l9.2 5.4z"/>
		</g>
		

	</g>
</svg>