<svg width="34" height="37" viewBox="0 0 34 37" fill="none" xmlns="http://www.w3.org/2000/svg">
<path d="M27.5132 13.5142C30.6345 12.301 32.1802 8.78403 30.9655 5.65884C29.7508 2.53364 26.2357 0.983659 23.1144 2.19686C19.993 3.41006 18.4474 6.92703 19.662 10.0522C20.8767 13.1774 24.3918 14.7274 27.5132 13.5142Z" fill="#00E599"/>
<path d="M27.4436 13.7857C30.5649 12.5725 32.1106 9.05552 30.8959 5.93032C29.6812 2.80512 26.1661 1.25514 23.0448 2.46834C19.9234 3.68155 18.3778 7.19851 19.5925 10.3237C20.8072 13.4489 24.3222 14.9989 27.4436 13.7857Z" fill="#01E598"/>
<path d="M27.3752 14.0572C30.4966 12.844 32.0422 9.327 30.8275 6.20181C29.6128 3.07661 26.0978 1.52663 22.9764 2.73983C19.8551 3.95303 18.3094 7.47 19.5241 10.5952C20.7388 13.7204 24.2539 15.2704 27.3752 14.0572Z" fill="#02E598"/>
<path d="M27.302 14.3267C30.4233 13.1135 31.969 9.59653 30.7543 6.47134C29.5396 3.34614 26.0245 1.79616 22.9032 3.00936C19.7818 4.22256 18.2362 7.73953 19.4509 10.8647C20.6656 13.9899 24.1806 15.5399 27.302 14.3267Z" fill="#03E597"/>
<path d="M27.2373 14.5972C30.3586 13.384 31.9043 9.86704 30.6896 6.74184C29.4749 3.61665 25.9598 2.06667 22.8385 3.27987C19.7171 4.49307 18.1715 8.01004 19.3862 11.1352C20.6009 14.2604 24.1159 15.8104 27.2373 14.5972Z" fill="#04E596"/>
<path d="M27.164 14.8658C30.2854 13.6526 31.831 10.1356 30.6163 7.0104C29.4017 3.8852 25.8866 2.33522 22.7652 3.54842C19.6439 4.76162 18.0982 8.27859 19.3129 11.4038C20.5276 14.529 24.0427 16.079 27.164 14.8658Z" fill="#05E696"/>
<path d="M27.0959 15.1382C30.2173 13.925 31.7629 10.4081 30.5482 7.28286C29.3335 4.15766 25.8185 2.60768 22.6971 3.82088C19.5758 5.03408 18.0301 8.55105 19.2448 11.6762C20.4595 14.8014 23.9746 16.3514 27.0959 15.1382Z" fill="#06E695"/>
<path d="M27.0261 15.4058C30.1474 14.1926 31.6931 10.6756 30.4784 7.55044C29.2637 4.42524 25.7486 2.87526 22.6273 4.08846C19.5059 5.30166 17.9603 8.81863 19.175 11.9438C20.3897 15.069 23.9047 16.619 27.0261 15.4058Z" fill="#07E694"/>
<path d="M26.9577 15.6822C30.0791 14.469 31.6247 10.952 30.41 7.8268C29.1954 4.70161 25.6803 3.15163 22.5589 4.36483C19.4376 5.57803 17.8919 9.095 19.1066 12.2202C20.3213 15.3454 23.8364 16.8954 26.9577 15.6822Z" fill="#08E694"/>
<path d="M26.8845 15.9507C30.0058 14.7375 31.5515 11.2206 30.3368 8.09536C29.1221 4.97016 25.607 3.42018 22.4857 4.63338C19.3643 5.84658 17.8187 9.36355 19.0334 12.4887C20.2481 15.6139 23.7631 17.1639 26.8845 15.9507Z" fill="#09E693"/>
<path d="M26.8164 16.2232C29.9377 15.01 31.4834 11.493 30.2687 8.36782C29.054 5.24262 25.5389 3.69264 22.4176 4.90584C19.2962 6.11905 17.7506 9.63601 18.9653 12.7612C20.18 15.8864 23.695 17.4364 26.8164 16.2232Z" fill="#0AE692"/>
<path d="M26.7466 16.4908C29.8679 15.2776 31.4136 11.7606 30.1989 8.6354C28.9842 5.5102 25.4691 3.96022 22.3478 5.17342C19.2264 6.38662 17.6807 9.90359 18.8954 13.0288C20.1101 16.154 23.6252 17.704 26.7466 16.4908Z" fill="#0BE692"/>
<path d="M26.6784 16.7622C29.7998 15.549 31.3454 12.0321 30.1308 8.90688C28.9161 5.78168 25.401 4.23171 22.2796 5.44491C19.1583 6.65811 17.6126 10.1751 18.8273 13.3003C20.042 16.4255 23.5571 17.9754 26.6784 16.7622Z" fill="#0CE691"/>
<path d="M26.605 17.0318C29.7263 15.8186 31.272 12.3016 30.0573 9.17641C28.8426 6.05122 25.3275 4.50124 22.2062 5.71444C19.0848 6.92764 17.5391 10.4446 18.7538 13.5698C19.9685 16.695 23.4836 18.245 26.605 17.0318Z" fill="#0DE690"/>
<path d="M26.5405 17.3062C29.6619 16.093 31.2075 12.576 29.9928 9.45083C28.7781 6.32563 25.2631 4.77565 22.1417 5.98885C19.0203 7.20205 17.4747 10.719 18.6894 13.8442C19.9041 16.9694 23.4191 18.5194 26.5405 17.3062Z" fill="#0EE790"/>
<path d="M26.467 17.5747C29.5884 16.3615 31.134 12.8446 29.9193 9.71938C28.7046 6.59419 25.1896 5.04421 22.0682 6.25741C18.9469 7.47061 17.4012 10.9876 18.6159 14.1128C19.8306 17.238 23.3457 18.7879 26.467 17.5747Z" fill="#0FE78F"/>
<path d="M26.3989 17.8472C29.5203 16.634 31.0659 13.117 29.8512 9.99184C28.6365 6.86665 25.1215 5.31667 22.0001 6.52987C18.8787 7.74307 17.3331 11.26 18.5478 14.3852C19.7625 17.5104 23.2775 19.0604 26.3989 17.8472Z" fill="#10E78E"/>
<path d="M26.3291 18.1148C29.4504 16.9016 30.9961 13.3846 29.7814 10.2594C28.5667 7.13422 25.0516 5.58424 21.9303 6.79745C18.8089 8.01065 17.2633 11.5276 18.478 14.6528C19.6927 17.778 23.2077 19.328 26.3291 18.1148Z" fill="#11E78E"/>
<path d="M26.2571 18.3872C29.3784 17.174 30.9241 13.6571 29.7094 10.5319C28.4947 7.40669 24.9796 5.85671 21.8583 7.06991C18.7369 8.28311 17.1912 11.8001 18.4059 14.9253C19.6206 18.0505 23.1357 19.6004 26.2571 18.3872Z" fill="#12E78D"/>
<path d="M26.1877 18.6558C29.3091 17.4426 30.8547 13.9256 29.64 10.8004C28.4253 7.67524 24.9103 6.12526 21.7889 7.33846C18.6676 8.55166 17.1219 12.0686 18.3366 15.1938C19.5513 18.319 23.0664 19.869 26.1877 18.6558Z" fill="#13E78C"/>
<path d="M26.1157 18.9283C29.2371 17.7151 30.7827 14.1981 29.568 11.0729C28.3533 7.9477 24.8383 6.39772 21.7169 7.61092C18.5955 8.82412 17.0499 12.3411 18.2646 15.4663C19.4793 18.5915 22.9943 20.1415 26.1157 18.9283Z" fill="#14E78C"/>
<path d="M26.0495 19.1988C29.1709 17.9856 30.7165 14.4686 29.5018 11.3434C28.2872 8.21821 24.7721 6.66823 21.6507 7.88143C18.5294 9.09463 16.9837 12.6116 18.1984 15.7368C19.4131 18.862 22.9282 20.412 26.0495 19.1988Z" fill="#15E78B"/>
<path d="M25.9778 19.4712C29.0991 18.258 30.6448 14.7411 29.4301 11.6159C28.2154 8.49067 24.7003 6.94069 21.579 8.15389C18.4576 9.36709 16.912 12.8841 18.1266 16.0093C19.3413 19.1345 22.8564 20.6844 25.9778 19.4712Z" fill="#16E88A"/>
<path d="M25.9082 19.7398C29.0295 18.5266 30.5752 15.0096 29.3605 11.8844C28.1458 8.75922 24.6307 7.20925 21.5094 8.42245C18.388 9.63565 16.8424 13.1526 18.0571 16.2778C19.2718 19.403 22.7868 20.953 25.9082 19.7398Z" fill="#17E88A"/>
<path d="M25.8398 20.0113C28.9612 18.7981 30.5068 15.2811 29.2921 12.1559C28.0774 9.03071 24.5624 7.48073 21.441 8.69393C18.3197 9.90713 16.774 13.4241 17.9887 16.5493C19.2034 19.6745 22.7185 21.2245 25.8398 20.0113Z" fill="#18E889"/>
<path d="M25.7702 20.2798C28.8916 19.0666 30.4372 15.5497 29.2225 12.4245C28.0079 9.29926 24.4928 7.74928 21.3714 8.96248C18.2501 10.1757 16.7044 13.6927 17.9191 16.8179C19.1338 19.943 22.6489 21.493 25.7702 20.2798Z" fill="#19E888"/>
<path d="M25.6982 20.5523C28.8196 19.3391 30.3652 15.8221 29.1505 12.6969C27.9358 9.57172 24.4208 8.02174 21.2994 9.23495C18.1781 10.4481 16.6324 13.9651 17.8471 17.0903C19.0618 20.2155 22.5769 21.7655 25.6982 20.5523Z" fill="#1AE888"/>
<path d="M25.6323 20.8199C28.7537 19.6067 30.2993 16.0897 29.0846 12.9645C27.8699 9.8393 24.3549 8.28932 21.2335 9.50252C18.1121 10.7157 16.5665 14.2327 17.7812 17.3579C18.9959 20.4831 22.5109 22.0331 25.6323 20.8199Z" fill="#1BE887"/>
<path d="M25.5603 21.0953C28.6816 19.8821 30.2273 16.3651 29.0126 13.2399C27.7979 10.1147 24.2828 8.56471 21.1615 9.77792C18.0401 10.9911 16.4945 14.5081 17.7092 17.6333C18.9239 20.7585 22.4389 22.3085 25.5603 21.0953Z" fill="#1CE886"/>
<path d="M25.4907 21.3648C28.6121 20.1516 30.1577 16.6346 28.943 13.5094C27.7283 10.3842 24.2133 8.83424 21.0919 10.0474C17.9705 11.2606 16.4249 14.7776 17.6396 17.9028C18.8543 21.028 22.3693 22.578 25.4907 21.3648Z" fill="#1DE886"/>
<path d="M25.4189 21.6372C28.5403 20.424 30.0859 16.9071 28.8712 13.7819C27.6565 10.6567 24.1415 9.10671 21.0201 10.3199C17.8988 11.5331 16.3531 15.0501 17.5678 18.1753C18.7825 21.3005 22.2976 22.8504 25.4189 21.6372Z" fill="#1EE885"/>
<path d="M25.3528 21.9039C28.4741 20.6907 30.0198 17.1737 28.8051 14.0485C27.5904 10.9233 24.0753 9.37331 20.954 10.5865C17.8326 11.7997 16.287 15.3167 17.5016 18.4419C18.7163 21.5671 22.2314 23.1171 25.3528 21.9039Z" fill="#1FE984"/>
<path d="M25.1893 22.1816C28.3037 20.976 29.8499 17.4708 28.6428 14.3526C27.4358 11.2343 23.9325 9.68379 20.8181 10.8894C17.7037 12.0949 16.1575 15.6001 17.3645 18.7184C18.5716 21.8366 22.0749 23.3871 25.1893 22.1816Z" fill="#20E984"/>
<path d="M25.2075 22.4449C28.3288 21.2317 29.8745 17.7147 28.6598 14.5895C27.4451 11.4643 23.93 9.91432 20.8087 11.1275C17.6873 12.3407 16.1417 15.8577 17.3564 18.9829C18.5711 22.1081 22.0861 23.6581 25.2075 22.4449Z" fill="#21E983"/>
<path d="M25.1428 22.7203C28.2641 21.5071 29.8098 17.9901 28.5951 14.8649C27.3804 11.7397 23.8654 10.1897 20.744 11.4029C17.6226 12.6161 16.077 16.1331 17.2917 19.2583C18.5064 22.3835 22.0214 23.9335 25.1428 22.7203Z" fill="#22E982"/>
<path d="M25.0696 22.9888C28.1909 21.7756 29.7366 18.2586 28.5219 15.1334C27.3072 12.0082 23.7921 10.4583 20.6708 11.6715C17.5494 12.8847 16.0037 16.4016 17.2184 19.5268C18.4331 22.652 21.9482 24.202 25.0696 22.9888Z" fill="#23E982"/>
<path d="M25.0014 23.2613C28.1228 22.0481 29.6684 18.5311 28.4537 15.4059C27.2391 12.2807 23.724 10.7307 20.6026 11.9439C17.4813 13.1571 15.9356 16.6741 17.1503 19.7993C18.365 22.9245 21.8801 24.4745 25.0014 23.2613Z" fill="#24E981"/>
<path d="M24.9282 23.5298C28.0496 22.3166 29.5952 18.7997 28.3805 15.6745C27.1658 12.5493 23.6508 10.9993 20.5294 12.2125C17.408 13.4257 15.8624 16.9427 17.0771 20.0679C18.2918 23.193 21.8068 24.743 24.9282 23.5298Z" fill="#25E980"/>
<path d="M24.8635 23.8003C27.9849 22.5871 29.5305 19.0702 28.3158 15.945C27.1011 12.8198 23.5861 11.2698 20.4647 12.483C17.3433 13.6962 15.7977 17.2132 17.0124 20.3384C18.2271 23.4636 21.7421 25.0135 24.8635 23.8003Z" fill="#26E980"/>
<path d="M24.6954 24.0702C27.8098 22.8647 29.356 19.3595 28.1489 16.2412C26.9419 13.123 23.4386 11.5725 20.3242 12.778C17.2098 13.9836 15.6636 17.4888 16.8706 20.607C18.0777 23.7253 21.581 25.2758 24.6954 24.0702Z" fill="#27E97F"/>
<path d="M24.7219 24.3423C27.8432 23.1291 29.3889 19.6122 28.1742 16.487C26.9595 13.3618 23.4445 11.8118 20.3231 13.025C17.2017 14.2382 15.6561 17.7552 16.8708 20.8804C18.0855 24.0055 21.6005 25.5555 24.7219 24.3423Z" fill="#28EA7E"/>
<path d="M24.6521 24.6128C27.7734 23.3996 29.3191 19.8827 28.1044 16.7575C26.8897 13.6323 23.3746 12.0823 20.2533 13.2955C17.1319 14.5087 15.5863 18.0257 16.801 21.1509C18.0157 24.2761 21.5307 25.826 24.6521 24.6128Z" fill="#29EA7E"/>
<path d="M24.584 24.8853C27.7053 23.6721 29.251 20.1551 28.0363 17.0299C26.8216 13.9047 23.3065 12.3548 20.1852 13.568C17.0638 14.7812 15.5182 18.2981 16.7328 21.4233C17.9475 24.5485 21.4626 26.0985 24.584 24.8853Z" fill="#2AEA7D"/>
<path d="M24.5107 25.1538C27.6321 23.9406 29.1777 20.4237 27.963 17.2985C26.7483 14.1733 23.2333 12.6233 20.1119 13.8365C16.9906 15.0497 15.4449 18.5667 16.6596 21.6919C17.8743 24.8171 21.3894 26.367 24.5107 25.1538Z" fill="#2BEA7C"/>
<path d="M24.4446 25.4214C27.5659 24.2082 29.1116 20.6913 27.8969 17.5661C26.6822 14.4409 23.1671 12.8909 20.0458 14.1041C16.9244 15.3173 15.3787 18.8343 16.5934 21.9595C17.8081 25.0847 21.3232 26.6346 24.4446 25.4214Z" fill="#2CEA7C"/>
<path d="M24.3728 25.6939C27.4941 24.4807 29.0398 20.9637 27.8251 17.8385C26.6104 14.7133 23.0953 13.1633 19.974 14.3765C16.8526 15.5897 15.307 19.1067 16.5217 22.2319C17.7364 25.3571 21.2514 26.9071 24.3728 25.6939Z" fill="#2DEA7B"/>
<path d="M24.3032 25.9624C27.4246 24.7492 28.9702 21.2323 27.7555 18.1071C26.5408 14.9819 23.0258 13.4319 19.9044 14.6451C16.783 15.8583 15.2374 19.3753 16.4521 22.5005C17.6668 25.6257 21.1818 27.1756 24.3032 25.9624Z" fill="#2EEA7A"/>
<path d="M24.2312 26.2349C27.3525 25.0217 28.8982 21.5047 27.6835 18.3795C26.4688 15.2543 22.9537 13.7044 19.8324 14.9176C16.711 16.1308 15.1654 19.6477 16.3801 22.7729C17.5948 25.8981 21.1098 27.4481 24.2312 26.2349Z" fill="#2FEA7A"/>
<path d="M24.1614 26.5064C27.2827 25.2932 28.8284 21.7762 27.6137 18.651C26.399 15.5258 22.8839 13.9758 19.7626 15.189C16.6412 16.4022 15.0955 19.9192 16.3102 23.0444C17.5249 26.1696 21.04 27.7196 24.1614 26.5064Z" fill="#30EB79"/>
<path d="M24.0932 26.7789C27.2146 25.5656 28.7602 22.0487 27.5455 18.9235C26.3308 15.7983 22.8158 14.2483 19.6944 15.4615C16.5731 16.6747 15.0274 20.1917 16.2421 23.3169C17.4568 26.4421 20.9719 27.9921 24.0932 26.7789Z" fill="#31EB78"/>
<path d="M24.02 27.0474C27.1413 25.8342 28.687 22.3172 27.4723 19.192C26.2576 16.0668 22.7425 14.5169 19.6212 15.7301C16.4998 16.9433 14.9542 20.4602 16.1689 23.5854C17.3836 26.7106 20.8986 28.2606 24.02 27.0474Z" fill="#32EB78"/>
<path d="M23.9553 27.3179C27.0766 26.1047 28.6223 22.5877 27.4076 19.4625C26.1929 16.3373 22.6778 14.7874 19.5565 16.0006C16.4351 17.2138 14.8895 20.7307 16.1042 23.8559C17.3189 26.9811 20.8339 28.5311 23.9553 27.3179Z" fill="#33EB77"/>
<path d="M23.8821 27.5865C27.0034 26.3733 28.5491 22.8563 27.3344 19.7311C26.1197 16.6059 22.6046 15.0559 19.4833 16.2691C16.3619 17.4823 14.8162 20.9993 16.0309 24.1245C17.2456 27.2497 20.7607 28.7997 23.8821 27.5865Z" fill="#34EB76"/>
<path d="M23.7125 27.8495C26.8269 26.644 28.3731 23.1388 27.166 20.0205C25.959 16.9023 22.4557 15.3518 19.3413 16.5573C16.2269 17.7629 14.6807 21.2681 15.8877 24.3863C17.0948 27.5046 20.5981 29.0551 23.7125 27.8495Z" fill="#35EB76"/>
<path d="M23.6422 28.1161C26.7566 26.9106 28.3028 23.4054 27.0957 20.2871C25.8887 17.1689 22.3854 15.6184 19.271 16.8239C16.1566 18.0295 14.6104 21.5347 15.8174 24.6529C17.0245 27.7712 20.5277 29.3217 23.6422 28.1161Z" fill="#36EB75"/>
<path d="M23.6758 28.4029C26.7971 27.1897 28.3428 23.6727 27.1281 20.5475C25.9134 17.4223 22.3983 15.8723 19.277 17.0855C16.1556 18.2987 14.6099 21.8157 15.8246 24.9409C17.0393 28.0661 20.5544 29.6161 23.6758 28.4029Z" fill="#37EB74"/>
<path d="M23.6025 28.6714C26.7239 27.4582 28.2695 23.9413 27.0548 20.8161C25.8401 17.6909 22.3251 16.1409 19.2037 17.3541C16.0824 18.5673 14.5367 22.0843 15.7514 25.2095C16.9661 28.3346 20.4812 29.8846 23.6025 28.6714Z" fill="#38EB74"/>
<path d="M23.5344 28.9439C26.6557 27.7307 28.2014 24.2137 26.9867 21.0885C25.772 17.9633 22.257 16.4133 19.1356 17.6265C16.0142 18.8397 14.4686 22.3567 15.6833 25.4819C16.898 28.6071 20.413 30.1571 23.5344 28.9439Z" fill="#39EC73"/>
<path d="M23.4646 29.2115C26.5859 27.9983 28.1316 24.4813 26.9169 21.3561C25.7022 18.2309 22.1871 16.6809 19.0658 17.8941C15.9444 19.1073 14.3988 22.6243 15.6135 25.7495C16.8282 28.8747 20.3432 30.4247 23.4646 29.2115Z" fill="#3AEC72"/>
<path d="M23.3962 29.4839C26.5176 28.2707 28.0632 24.7538 26.8485 21.6286C25.6338 18.5034 22.1188 16.9534 18.9974 18.1666C15.8761 19.3798 14.3304 22.8968 15.5451 26.022C16.7598 29.1471 20.2749 30.6971 23.3962 29.4839Z" fill="#3BEC72"/>
<path d="M23.323 29.7525C26.4443 28.5393 27.99 25.0223 26.7753 21.8971C25.5606 18.7719 22.0455 17.2219 18.9242 18.4351C15.8028 19.6483 14.2572 23.1653 15.4719 26.2905C16.6866 29.4157 20.2016 30.9657 23.323 29.7525Z" fill="#3CEC71"/>
<path d="M23.2583 30.0269C26.3796 28.8137 27.9253 25.2967 26.7106 22.1715C25.4959 19.0463 21.9808 17.4964 18.8595 18.7096C15.7381 19.9228 14.1925 23.4397 15.4072 26.5649C16.6219 29.6901 20.1369 31.2401 23.2583 30.0269Z" fill="#3DEC70"/>
<path d="M23.185 30.2955C26.3064 29.0823 27.852 25.5653 26.6373 22.4401C25.4226 19.3149 21.9076 17.7649 18.7862 18.9781C15.6649 20.1913 14.1192 23.7083 15.3339 26.8335C16.5486 29.9587 20.0637 31.5087 23.185 30.2955Z" fill="#3EEC70"/>
<path d="M23.1133 30.5679C26.2346 29.3547 27.7803 25.8377 26.5656 22.7125C25.3509 19.5874 21.8358 18.0374 18.7145 19.2506C15.5931 20.4638 14.0474 23.9807 15.2621 27.1059C16.4768 30.2311 19.9919 31.7811 23.1133 30.5679Z" fill="#3FEC6F"/>
<path d="M23.0471 30.8355C26.1684 29.6223 27.7141 26.1053 26.4994 22.9801C25.2847 19.8549 21.7696 18.3049 18.6483 19.5181C15.5269 20.7314 13.9813 24.2483 15.196 27.3735C16.4107 30.4987 19.9257 32.0487 23.0471 30.8355Z" fill="#40EC6E"/>
<path d="M22.9751 31.108C26.0964 29.8948 27.6421 26.3778 26.4274 23.2526C25.2127 20.1274 21.6976 18.5774 18.5763 19.7906C15.4549 21.0038 13.9093 24.5208 15.124 27.646C16.3387 30.7712 19.8537 32.3212 22.9751 31.108Z" fill="#41EC6E"/>
<path d="M22.9055 31.3765C26.0268 30.1633 27.5725 26.6463 26.3578 23.5211C25.1431 20.3959 21.628 18.846 18.5067 20.0592C15.3853 21.2724 13.8397 24.7893 15.0544 27.9145C16.2691 31.0397 19.7841 32.5897 22.9055 31.3765Z" fill="#42ED6D"/>
<path d="M22.8337 31.649C25.9551 30.4358 27.5007 26.9188 26.286 23.7936C25.0713 20.6684 21.5563 19.1184 18.4349 20.3316C15.3136 21.5448 13.7679 25.0618 14.9826 28.187C16.1973 31.3122 19.7124 32.8622 22.8337 31.649Z" fill="#43ED6C"/>
<path d="M22.6592 31.8993C25.7737 30.6938 27.3199 27.1886 26.1128 24.0703C24.9057 20.9521 21.4025 19.4016 18.2881 20.6071C15.1737 21.8127 13.6274 25.3179 14.8345 28.4361C16.0416 31.5544 19.5448 33.1049 22.6592 31.8993Z" fill="#44ED6C"/>
<path d="M22.6958 32.1919C25.8171 30.9787 27.3628 27.4618 26.1481 24.3366C24.9334 21.2114 21.4183 19.6614 18.297 20.8746C15.1756 22.0878 13.63 25.6048 14.8447 28.73C16.0594 31.8552 19.5744 33.4051 22.6958 32.1919Z" fill="#45ED6B"/>
<path d="M22.6262 32.4615C25.7475 31.2483 27.2932 27.7313 26.0785 24.6061C24.8638 21.4809 21.3487 19.9309 18.2274 21.1441C15.106 22.3573 13.5604 25.8743 14.7751 28.9995C15.9898 32.1247 19.5048 33.6747 22.6262 32.4615Z" fill="#46ED6A"/>
<path d="M22.5576 32.732C25.6789 31.5188 27.2246 28.0018 26.0099 24.8766C24.7952 21.7514 21.2801 20.2014 18.1588 21.4146C15.0374 22.6278 13.4918 26.1448 14.7065 29.27C15.9212 32.3952 19.4362 33.9452 22.5576 32.732Z" fill="#47ED6A"/>
<path d="M22.4883 33.0005C25.6096 31.7873 27.1553 28.2704 25.9406 25.1452C24.7259 22.02 21.2108 20.47 18.0895 21.6832C14.9681 22.8964 13.4224 26.4134 14.6371 29.5386C15.8518 32.6638 19.3669 34.2137 22.4883 33.0005Z" fill="#48ED69"/>
<path d="M22.4162 33.273C25.5376 32.0598 27.0832 28.5428 25.8685 25.4176C24.6538 22.2924 21.1388 20.7424 18.0174 21.9556C14.8961 23.1688 13.3504 26.6858 14.5651 29.811C15.7798 32.9362 19.2949 34.4862 22.4162 33.273Z" fill="#49ED68"/>
<path d="M22.3462 33.521C25.4675 32.3078 27.0132 28.7909 25.7985 25.6657C24.5838 22.5405 21.0687 20.9905 17.9474 22.2037C14.826 23.4169 13.2804 26.9339 14.4951 30.0591C15.7097 33.1843 19.2248 34.7342 22.3462 33.521Z" fill="#4AEE68"/>
<path d="M22.2561 33.2544C25.3774 32.0412 26.9231 28.5243 25.7084 25.3991C24.4937 22.2739 20.9786 20.7239 17.8573 21.9371C14.7359 23.1503 13.1903 26.6673 14.405 29.7925C15.6197 32.9177 19.1347 34.4676 22.2561 33.2544Z" fill="#4BEE67"/>
<path d="M22.1675 32.9947C25.2888 31.7815 26.8345 28.2645 25.6198 25.1393C24.4051 22.0141 20.89 20.4641 17.7687 21.6773C14.6473 22.8905 13.1016 26.4075 14.3163 29.5327C15.531 32.6579 19.0461 34.2079 22.1675 32.9947Z" fill="#4CEE66"/>
<path d="M22.0776 32.7271C25.199 31.5139 26.7446 27.9969 25.5299 24.8717C24.3152 21.7465 20.8002 20.1965 17.6788 21.4098C14.5575 22.623 13.0118 26.1399 14.2265 29.2651C15.4412 32.3903 18.9563 33.9403 22.0776 32.7271Z" fill="#4DEE66"/>
<path d="M21.9875 32.4644C25.1089 31.2512 26.6545 27.7342 25.4398 24.609C24.2251 21.4838 20.7101 19.9339 17.5887 21.1471C14.4674 22.3603 12.9217 25.8772 14.1364 29.0024C15.3511 32.1276 18.8662 33.6776 21.9875 32.4644Z" fill="#4EEE65"/>
<path d="M21.8977 32.1978C25.019 30.9846 26.5647 27.4676 25.35 24.3424C24.1353 21.2172 20.6202 19.6673 17.4989 20.8805C14.3775 22.0937 12.8319 25.6106 14.0466 28.7358C15.2613 31.861 18.7763 33.411 21.8977 32.1978Z" fill="#4FEE64"/>
<path d="M21.8042 31.9361C24.9255 30.7229 26.4712 27.2059 25.2565 24.0807C24.0418 20.9555 20.5267 19.4055 17.4054 20.6187C14.284 21.8319 12.7384 25.3489 13.9531 28.4741C15.1678 31.5993 18.6828 33.1493 21.8042 31.9361Z" fill="#50EE64"/>
<path d="M21.6087 31.6464C24.7231 30.4408 26.2693 26.9357 25.0623 23.8174C23.8552 20.6992 20.352 19.1486 17.2375 20.3542C14.1231 21.5598 12.5769 25.065 13.784 28.1832C14.991 31.3015 18.4943 32.852 21.6087 31.6464Z" fill="#51EE63"/>
<path d="M21.6242 31.4058C24.7456 30.1926 26.2912 26.6756 25.0766 23.5504C23.8619 20.4252 20.3468 18.8753 17.2254 20.0885C14.1041 21.3017 12.5584 24.8186 13.7731 27.9438C14.9878 31.069 18.5029 32.619 21.6242 31.4058Z" fill="#52EE62"/>
<path d="M21.5359 31.1421C24.6572 29.9289 26.2029 26.412 24.9882 23.2868C23.7735 20.1616 20.2584 18.6116 17.1371 19.8248C14.0157 21.038 12.4701 24.555 13.6848 27.6802C14.8994 30.8054 18.4145 32.3553 21.5359 31.1421Z" fill="#53EF62"/>
<path d="M21.4458 30.8755C24.5671 29.6623 26.1128 26.1454 24.8981 23.0202C23.6834 19.895 20.1683 18.345 17.047 19.5582C13.9256 20.7714 12.38 24.2884 13.5947 27.4136C14.8094 30.5387 18.3244 32.0887 21.4458 30.8755Z" fill="#54EF61"/>
<path d="M21.3557 30.6119C24.477 29.3987 26.0227 25.8817 24.808 22.7565C23.5933 19.6313 20.0782 18.0813 16.9569 19.2945C13.8355 20.5077 12.2899 24.0247 13.5046 27.1499C14.7193 30.2751 18.2343 31.8251 21.3557 30.6119Z" fill="#55EF60"/>
<path d="M21.2658 30.3453C24.3872 29.1321 25.9328 25.6151 24.7182 22.4899C23.5035 19.3647 19.9884 17.8147 16.867 19.0279C13.7457 20.2411 12.2 23.7581 13.4147 26.8833C14.6294 30.0085 18.1445 31.5585 21.2658 30.3453Z" fill="#56EF60"/>
<path d="M21.1723 30.0835C24.2937 28.8703 25.8393 25.3534 24.6246 22.2282C23.41 19.103 19.8949 17.553 16.7735 18.7662C13.6522 19.9794 12.1065 23.4964 13.3212 26.6216C14.5359 29.7468 18.051 31.2967 21.1723 30.0835Z" fill="#57EF5F"/>
<path d="M21.0825 29.8169C24.2038 28.6037 25.7495 25.0868 24.5348 21.9616C23.3201 18.8364 19.805 17.2864 16.6837 18.4996C13.5623 19.7128 12.0167 23.2298 13.2314 26.355C14.4461 29.4802 17.9611 31.0301 21.0825 29.8169Z" fill="#58EF5E"/>
<path d="M20.9926 29.5533C24.114 28.3401 25.6597 24.8231 24.445 21.6979C23.2303 18.5727 19.7152 17.0227 16.5938 18.2359C13.4725 19.4491 11.9268 22.9661 13.1415 26.0913C14.3562 29.2165 17.8713 30.7665 20.9926 29.5533Z" fill="#59EF5E"/>
<path d="M20.9026 29.2867C24.0239 28.0735 25.5696 24.5565 24.3549 21.4313C23.1402 18.3061 19.6251 16.7561 16.5038 17.9693C13.3824 19.1825 11.8368 22.6995 13.0515 25.8247C14.2661 28.9499 17.7812 30.4999 20.9026 29.2867Z" fill="#5AEF5D"/>
<path d="M20.8139 29.023C23.9353 27.8098 25.4809 24.2928 24.2662 21.1676C23.0516 18.0424 19.5365 16.4924 16.4151 17.7056C13.2938 18.9189 11.7481 22.4358 12.9628 25.561C14.1775 28.6862 17.6926 30.2362 20.8139 29.023Z" fill="#5BEF5C"/>
<path d="M20.7241 28.7603C23.8454 27.5471 25.3911 24.0301 24.1764 20.9049C22.9617 17.7797 19.4466 16.2298 16.3253 17.443C13.2039 18.6562 11.6583 22.1731 12.873 25.2983C14.0877 28.4235 17.6027 29.9735 20.7241 28.7603Z" fill="#5CF05C"/>
<path d="M20.634 28.4927C23.7554 27.2795 25.301 23.7625 24.0863 20.6374C22.8716 17.5122 19.3566 15.9622 16.2352 17.1754C13.1139 18.3886 11.5682 21.9055 12.7829 25.0307C13.9976 28.1559 17.5127 29.7059 20.634 28.4927Z" fill="#5DF05B"/>
<path d="M20.5407 28.231C23.6621 27.0178 25.2078 23.5008 23.9931 20.3756C22.7784 17.2504 19.2633 15.7005 16.1419 16.9137C13.0206 18.1269 11.4749 21.6438 12.6896 24.769C13.9043 27.8942 17.4194 29.4442 20.5407 28.231Z" fill="#5EF05A"/>
<path d="M20.4507 27.9644C23.572 26.7512 25.1177 23.2342 23.903 20.109C22.6883 16.9838 19.1732 15.4339 16.0519 16.6471C12.9305 17.8603 11.3849 21.3772 12.5995 24.5024C13.8142 27.6276 17.3293 29.1776 20.4507 27.9644Z" fill="#5FF05A"/>
<path d="M20.3608 27.7007C23.4822 26.4875 25.0278 22.9706 23.8131 19.8454C22.5984 16.7202 19.0834 15.1702 15.962 16.3834C12.8407 17.5966 11.295 21.1136 12.5097 24.2387C13.7244 27.3639 17.2395 28.9139 20.3608 27.7007Z" fill="#60F059"/>
<path d="M20.2707 27.4341C23.3921 26.2209 24.9377 22.704 23.723 19.5788C22.5083 16.4536 18.9933 14.9036 15.8719 16.1168C12.7506 17.33 11.2049 20.847 12.4196 23.9721C13.6343 27.0973 17.1494 28.6473 20.2707 27.4341Z" fill="#61F058"/>
<path d="M20.186 27.1744C23.3074 25.9612 24.853 22.4442 23.6383 19.319C22.4236 16.1938 18.9086 14.6438 15.7872 15.857C12.6659 17.0702 11.1202 20.5872 12.3349 23.7124C13.5496 26.8376 17.0647 28.3876 20.186 27.1744Z" fill="#62F058"/>
<path d="M20.0959 26.9078C23.2173 25.6946 24.7629 22.1776 23.5482 19.0524C22.3335 15.9272 18.8185 14.3772 15.6971 15.5904C12.5758 16.8036 11.0301 20.3206 12.2448 23.4458C13.4595 26.571 16.9746 28.121 20.0959 26.9078Z" fill="#63F057"/>
<path d="M20.0061 26.6412C23.1274 25.428 24.6731 21.911 23.4584 18.7858C22.2437 15.6606 18.7286 14.1106 15.6073 15.3238C12.4859 16.537 10.9403 20.054 12.155 23.1792C13.3697 26.3044 16.8847 27.8544 20.0061 26.6412Z" fill="#64F156"/>
<path d="M19.916 26.3775C23.0373 25.1643 24.583 21.6473 23.3683 18.5221C22.1536 15.3969 18.6385 13.8469 15.5172 15.0601C12.3958 16.2733 10.8502 19.7903 12.0649 22.9155C13.2796 26.0407 16.7946 27.5907 19.916 26.3775Z" fill="#65F156"/>
<path d="M19.8227 26.1119C22.9441 24.8987 24.4897 21.3817 23.275 18.2565C22.0603 15.1313 18.5453 13.5813 15.4239 14.7945C12.3026 16.0077 10.7569 19.5247 11.9716 22.6499C13.1863 25.7751 16.7014 27.3251 19.8227 26.1119Z" fill="#66F155"/>
<path d="M19.7326 25.8492C22.854 24.636 24.3996 21.119 23.1849 17.9938C21.9703 14.8686 18.4552 13.3186 15.3338 14.5318C12.2125 15.745 10.6668 19.262 11.8815 22.3872C13.0962 25.5124 16.6113 27.0624 19.7326 25.8492Z" fill="#67F154"/>
<path d="M19.6428 25.5816C22.7641 24.3684 24.3098 20.8514 23.0951 17.7262C21.8804 14.601 18.3653 13.051 15.244 14.2642C12.1226 15.4774 10.577 18.9944 11.7917 22.1196C13.0064 25.2448 16.5214 26.7948 19.6428 25.5816Z" fill="#68F154"/>
<path d="M19.5542 25.3228C22.6755 24.1096 24.2212 20.5926 23.0065 17.4674C21.7918 14.3422 18.2767 12.7923 15.1554 14.0055C12.034 15.2187 10.4884 18.7356 11.7031 21.8608C12.9178 24.986 16.4328 26.536 19.5542 25.3228Z" fill="#69F153"/>
<path d="M19.4643 25.0552C22.5857 23.842 24.1313 20.325 22.9166 17.1999C21.7019 14.0747 18.1869 12.5247 15.0655 13.7379C11.9442 14.9511 10.3985 18.468 11.6132 21.5932C12.8279 24.7184 16.343 26.2684 19.4643 25.0552Z" fill="#6AF152"/>
<path d="M19.3742 24.7925C22.4956 23.5793 24.0412 20.0624 22.8266 16.9372C21.6119 13.812 18.0968 12.262 14.9754 13.4752C11.8541 14.6884 10.3084 18.2053 11.5231 21.3305C12.7378 24.4557 16.2529 26.0057 19.3742 24.7925Z" fill="#6BF152"/>
<path d="M19.2844 24.5249C22.4058 23.3117 23.9514 19.7948 22.7367 16.6696C21.522 13.5444 18.007 11.9944 14.8856 13.2076C11.7642 14.4208 10.2186 17.9378 11.4333 21.063C12.648 24.1882 16.163 25.7381 19.2844 24.5249Z" fill="#6CF151"/>
<path d="M19.1909 24.2593C22.3122 23.0461 23.8579 19.5292 22.6432 16.404C21.4285 13.2788 17.9134 11.7288 14.7921 12.942C11.6707 14.1552 10.1251 17.6721 11.3398 20.7973C12.5545 23.9225 16.0695 25.4725 19.1909 24.2593Z" fill="#6DF250"/>
<path d="M19.101 23.9966C22.2224 22.7834 23.7681 19.2665 22.5534 16.1413C21.3387 13.0161 17.8236 11.4661 14.7022 12.6793C11.5809 13.8925 10.0352 17.4095 11.2499 20.5346C12.4646 23.6598 15.9797 25.2098 19.101 23.9966Z" fill="#6EF250"/>
<path d="M19.011 23.73C22.1323 22.5168 23.678 18.9999 22.4633 15.8747C21.2486 12.7495 17.7335 11.1995 14.6122 12.4127C11.4908 13.6259 9.94515 17.1428 11.1598 20.268C12.3745 23.3932 15.8896 24.9432 19.011 23.73Z" fill="#6FF24F"/>
<path d="M18.9211 23.4663C22.0425 22.2531 23.5881 18.7362 22.3734 15.611C21.1587 12.4858 17.6437 10.9358 14.5223 12.149C11.401 13.3622 9.85531 16.8792 11.07 20.0044C12.2847 23.1296 15.7998 24.6795 18.9211 23.4663Z" fill="#70F24E"/>
<path d="M18.8325 23.2027C21.9538 21.9895 23.4995 18.4725 22.2848 15.3473C21.0701 12.2221 17.555 10.6721 14.4337 11.8853C11.3123 13.0985 9.76669 16.6155 10.9814 19.7407C12.1961 22.8659 15.7111 24.4159 18.8325 23.2027Z" fill="#71F24E"/>
<path d="M18.7424 22.94C21.8638 21.7268 23.4094 18.2098 22.1947 15.0846C20.98 11.9594 17.465 10.4094 14.3436 11.6226C11.2223 12.8358 9.6766 16.3528 10.8913 19.478C12.106 22.6032 15.6211 24.1532 18.7424 22.94Z" fill="#72F24D"/>
<path d="M18.6526 22.6734C21.7739 21.4602 23.3196 17.9432 22.1049 14.818C20.8902 11.6928 17.3751 10.1428 14.2538 11.356C11.1324 12.5692 9.58676 16.0862 10.8015 19.2114C12.0161 22.3366 15.5312 23.8866 18.6526 22.6734Z" fill="#73F24C"/>
<path d="M18.5591 22.4078C21.6804 21.1946 23.2261 17.6776 22.0114 14.5524C20.7967 11.4272 17.2816 9.87721 14.1603 11.0904C11.0389 12.3036 9.49325 15.8206 10.7079 18.9458C11.9226 22.071 15.4377 23.621 18.5591 22.4078Z" fill="#74F24B"/>
<path d="M18.4692 22.1441C21.5906 20.9309 23.1362 17.4139 21.9215 14.2887C20.7068 11.1635 17.1918 9.61354 14.0704 10.8267C10.9491 12.0399 9.40341 15.5569 10.6181 18.6821C11.8328 21.8073 15.3479 23.3573 18.4692 22.1441Z" fill="#75F24B"/>
<path d="M18.3791 21.8775C21.5005 20.6643 23.0461 17.1473 21.8314 14.0221C20.6167 10.8969 17.1017 9.34694 13.9803 10.5601C10.859 11.7733 9.31332 15.2903 10.528 18.4155C11.7427 21.5407 15.2578 23.0907 18.3791 21.8775Z" fill="#76F34A"/>
<path d="M18.2893 21.6148C21.4106 20.4016 22.9563 16.8846 21.7416 13.7594C20.5269 10.6342 17.0118 9.08424 13.8905 10.2974C10.7691 11.5106 9.22347 15.0276 10.4382 18.1528C11.6529 21.278 15.1679 22.828 18.2893 21.6148Z" fill="#77F349"/>
<path d="M18.2007 21.3511C21.322 20.1379 22.8677 16.6209 21.653 13.4957C20.4383 10.3706 16.9232 8.82057 13.8019 10.0338C10.6805 11.247 9.13485 14.7639 10.3495 17.8891C11.5642 21.0143 15.0793 22.5643 18.2007 21.3511Z" fill="#78F349"/>
<path d="M18.1108 21.0874C21.2322 19.8742 22.7778 16.3573 21.5631 13.2321C20.3484 10.1069 16.8334 8.5569 13.712 9.7701C10.5907 10.9833 9.04501 14.5003 10.2597 17.6255C11.4744 20.7507 14.9895 22.3006 18.1108 21.0874Z" fill="#79F348"/>
<path d="M18.0207 20.8208C21.1421 19.6076 22.6877 16.0907 21.473 12.9655C20.2583 9.84028 16.7433 8.2903 13.6219 9.5035C10.5006 10.7167 8.95492 14.2337 10.1696 17.3589C11.3843 20.4841 14.8994 22.034 18.0207 20.8208Z" fill="#7AF347"/>
<path d="M17.9275 20.5591C21.0488 19.3459 22.5945 15.829 21.3798 12.7038C20.1651 9.57856 16.65 8.02858 13.5287 9.24178C10.4073 10.455 8.86166 13.9719 10.0764 17.0971C11.291 20.2223 14.8061 21.7723 17.9275 20.5591Z" fill="#7BF347"/>
<path d="M17.8374 20.2925C20.9587 19.0793 22.5044 15.5624 21.2897 12.4372C20.075 9.31196 16.5599 7.76198 13.4386 8.97518C10.3172 10.1884 8.77157 13.7053 9.98626 16.8305C11.201 19.9557 14.716 21.5057 17.8374 20.2925Z" fill="#7CF346"/>
<path d="M17.7473 20.0249C20.8686 18.8117 22.4143 15.2948 21.1996 12.1696C19.9849 9.04438 16.4698 7.4944 13.3485 8.7076C10.2271 9.9208 8.68148 13.4378 9.89618 16.563C11.1109 19.6882 14.6259 21.2381 17.7473 20.0249Z" fill="#7DF345"/>
<path d="M17.6574 19.7622C20.7788 18.549 22.3245 15.0321 21.1098 11.9069C19.8951 8.78169 16.38 7.23171 13.2586 8.44491C10.1373 9.65811 8.59164 13.1751 9.80633 16.3003C11.021 19.4255 14.5361 20.9754 17.6574 19.7622Z" fill="#7EF345"/>
<path d="M17.5676 19.4956C20.689 18.2824 22.2346 14.7655 21.0199 11.6403C19.8052 8.51508 16.2902 6.9651 13.1688 8.17831C10.0474 9.39151 8.50179 12.9085 9.71649 16.0337C10.9312 19.1589 14.4462 20.7088 17.5676 19.4956Z" fill="#7FF444"/>
<path d="M17.4826 19.2359C20.604 18.0227 22.1496 14.5057 20.935 11.3805C19.7203 8.25532 16.2052 6.70534 13.0838 7.91854C9.96249 9.13174 8.41683 12.6487 9.63153 15.7739C10.8462 18.8991 14.3613 20.4491 17.4826 19.2359Z" fill="#80F443"/>
<path d="M17.3928 18.9683C20.5142 17.7551 22.0598 14.2381 20.8451 11.1129C19.6304 7.98774 16.1154 6.43776 12.994 7.65096C9.87264 8.86416 8.32699 12.3811 9.54169 15.5063C10.7564 18.6315 14.2714 20.1815 17.3928 18.9683Z" fill="#81F443"/>
<path d="M17.2993 18.7066C20.4206 17.4934 21.9663 13.9764 20.7516 10.8512C19.5369 7.72602 16.0218 6.17604 12.9005 7.38924C9.77914 8.60244 8.23348 12.1194 9.44818 15.2446C10.6629 18.3698 14.1779 19.9198 17.2993 18.7066Z" fill="#82F442"/>
<path d="M17.2092 18.44C20.3306 17.2268 21.8762 13.7098 20.6615 10.5846C19.4468 7.45942 15.9318 5.90944 12.8104 7.12264C9.68905 8.33584 8.1434 11.8528 9.35809 14.978C10.5728 18.1032 14.0878 19.6532 17.2092 18.44Z" fill="#83F441"/>
<path d="M17.1194 18.1734C20.2407 16.9602 21.7864 13.4432 20.5717 10.318C19.357 7.19282 15.8419 5.64284 12.7206 6.85604C9.5992 8.06924 8.05355 11.5862 9.26825 14.7114C10.4829 17.8366 13.998 19.3866 17.1194 18.1734Z" fill="#84F441"/>
<path d="M17.0295 17.9097C20.1509 16.6965 21.6965 13.1795 20.4818 10.0543C19.2671 6.92915 15.7521 5.37917 12.6307 6.59237C9.50936 7.80557 7.96371 11.3225 9.1784 14.4477C10.3931 17.5729 13.9082 19.1229 17.0295 17.9097Z" fill="#85F440"/>
<path d="M16.9394 17.6431C20.0608 16.4299 21.6064 12.9129 20.3917 9.78774C19.177 6.66254 15.662 5.11257 12.5406 6.32577C9.41927 7.53897 7.87362 11.0559 9.08832 14.1811C10.303 17.3063 13.8181 18.8563 16.9394 17.6431Z" fill="#86F43F"/>
<path d="M16.8508 17.3833C19.9722 16.1701 21.5178 12.6532 20.3031 9.52798C19.0884 6.40278 15.5734 4.8528 12.452 6.066C9.33065 7.2792 7.785 10.7962 8.99969 13.9214C10.2144 17.0466 13.7295 18.5965 16.8508 17.3833Z" fill="#87F53F"/>
<path d="M16.761 17.1167C19.8823 15.9035 21.428 12.3866 20.2133 9.26137C18.9986 6.13618 15.4835 4.5862 12.3622 5.7994C9.24081 7.0126 7.69515 10.5296 8.90985 13.6548C10.1245 16.78 13.6396 18.3299 16.761 17.1167Z" fill="#88F53E"/>
<path d="M16.6675 16.855C19.7888 15.6418 21.3345 12.1249 20.1198 8.99966C18.9051 5.87446 15.39 4.32448 12.2687 5.53768C9.1473 6.75088 7.60165 10.2678 8.81634 13.393C10.031 16.5182 13.5461 18.0682 16.6675 16.855Z" fill="#89F53D"/>
<path d="M16.5776 16.5874C19.699 15.3742 21.2446 11.8573 20.0299 8.73208C18.8152 5.60688 15.3002 4.0569 12.1788 5.2701C9.05746 6.4833 7.5118 10.0003 8.7265 13.1255C9.94119 16.2507 13.4563 17.8006 16.5776 16.5874Z" fill="#8AF53D"/>
<path d="M16.4875 16.3247C19.6089 15.1115 21.1545 11.5946 19.9398 8.46938C18.7251 5.34419 15.2101 3.79421 12.0887 5.00741C8.96737 6.22061 7.42172 9.73757 8.63641 12.8628C9.85111 15.988 13.3662 17.5379 16.4875 16.3247Z" fill="#8BF53C"/>
<path d="M16.3977 16.0572C19.519 14.844 21.0647 11.327 19.85 8.20181C18.6353 5.07661 15.1202 3.52663 11.9989 4.73983C8.87753 5.95303 7.33187 9.47 8.54657 12.5952C9.76126 15.7204 13.2763 17.2704 16.3977 16.0572Z" fill="#8CF53B"/>
<path d="M16.3076 15.7906C19.4289 14.5774 20.9746 11.0604 19.7599 7.9352C18.5452 4.81001 15.0301 3.26003 11.9088 4.47323C8.78744 5.68643 7.24178 9.2034 8.45648 12.3286C9.67118 15.4538 13.1862 17.0038 16.3076 15.7906Z" fill="#8DF53B"/>
<path d="M16.219 15.5308C19.3403 14.3176 20.886 10.8006 19.6713 7.67544C18.4566 4.55024 14.9415 3.00026 11.8202 4.21346C8.69881 5.42666 7.15316 8.94363 8.36786 12.0688C9.58255 15.194 13.0976 16.744 16.219 15.5308Z" fill="#8EF53A"/>
<path d="M16.1291 15.2642C19.2505 14.051 20.7961 10.534 19.5814 7.40884C18.3667 4.28364 14.8517 2.73366 11.7303 3.94686C8.60897 5.16006 7.06332 8.67703 8.27801 11.8022C9.49271 14.9274 13.0078 16.4774 16.1291 15.2642Z" fill="#8FF539"/>
<path d="M16.0356 15.0025C19.157 13.7893 20.7026 10.2723 19.4879 7.14712C18.2732 4.02192 14.7582 2.47194 11.6368 3.68514C8.51546 4.89834 6.96981 8.41531 8.18451 11.5405C9.3992 14.6657 12.9143 16.2157 16.0356 15.0025Z" fill="#90F639"/>
<path d="M15.9458 14.7359C19.0671 13.5227 20.6128 10.0057 19.3981 6.88052C18.1834 3.75532 14.6683 2.20534 11.547 3.41854C8.42562 4.63174 6.87997 8.14871 8.09466 11.2739C9.30936 14.3991 12.8244 15.9491 15.9458 14.7359Z" fill="#91F638"/>
<path d="M15.8559 14.4722C18.9773 13.259 20.5229 9.74204 19.3082 6.61684C18.0935 3.49165 14.5785 1.94167 11.4571 3.15487C8.33578 4.36807 6.79012 7.88504 8.00482 11.0102C9.21951 14.1354 12.7346 15.6854 15.8559 14.4722Z" fill="#92F637"/>
<path d="M15.7658 14.2056C18.8872 12.9924 20.4328 9.47544 19.2182 6.35024C18.0035 3.22505 14.4884 1.67507 11.367 2.88827C8.24569 4.10147 6.70004 7.61843 7.91473 10.7436C9.12943 13.8688 12.6445 15.4188 15.7658 14.2056Z" fill="#93F637"/>
<path d="M15.676 13.9419C18.7974 12.7287 20.343 9.21177 19.1283 6.08657C17.9136 2.96137 14.3986 1.41139 11.2772 2.62459C8.15584 3.8378 6.61019 7.35476 7.82489 10.48C9.03958 13.6052 12.5546 15.1551 15.676 13.9419Z" fill="#94F636"/>
<path d="M15.5859 13.6753C18.7073 12.4621 20.2529 8.94517 19.0382 5.81997C17.8235 2.69477 14.3085 1.14479 11.1871 2.35799C8.06576 3.57119 6.52011 7.08816 7.7348 10.2134C8.9495 13.3386 12.4646 14.8885 15.5859 13.6753Z" fill="#95F635"/>
<path d="M15.4992 13.6167C18.6206 12.4035 20.1662 8.88657 18.9516 5.76137C17.7369 2.63618 14.2218 1.0862 11.1004 2.2994C7.97909 3.5126 6.43344 7.02957 7.64813 10.1548C8.86283 13.28 12.3779 14.8299 15.4992 13.6167Z" fill="#96F635"/>
<path d="M15.4309 13.8892C18.5522 12.676 20.0979 9.15903 18.8832 6.03384C17.6685 2.90864 14.1534 1.35866 11.0321 2.57186C7.91073 3.78506 6.36508 7.30203 7.57977 10.4272C8.79447 13.5524 12.3095 15.1024 15.4309 13.8892Z" fill="#97F634"/>
<path d="M15.3576 14.1578C18.479 12.9446 20.0246 9.42759 18.8099 6.30239C17.5953 3.17719 14.0802 1.62721 10.9588 2.84042C7.83748 4.05362 6.29183 7.57058 7.50653 10.6958C8.72122 13.821 12.2363 15.371 15.3576 14.1578Z" fill="#98F633"/>
<path d="M15.2364 14.4296C18.3508 13.224 19.897 9.71887 18.69 6.60061C17.4829 3.48236 13.9796 1.93183 10.8652 3.13741C7.75081 4.343 6.20459 7.84816 7.41166 10.9664C8.61873 14.0847 12.122 15.6352 15.2364 14.4296Z" fill="#99F733"/>
<path d="M15.2163 14.6997C18.3376 13.4865 19.8833 9.96958 18.6686 6.84438C17.4539 3.71919 13.9388 2.16921 10.8175 3.38241C7.69613 4.59561 6.15048 8.11257 7.36517 11.2378C8.57987 14.363 12.0949 15.9129 15.2163 14.6997Z" fill="#9AF732"/>
<path d="M15.1433 14.9693C18.2646 13.7561 19.8103 10.2391 18.5956 7.11391C17.3809 3.98872 13.8658 2.43874 10.7445 3.65194C7.62313 4.86514 6.07748 8.38211 7.29217 11.5073C8.50687 14.6325 12.0219 16.1825 15.1433 14.9693Z" fill="#9BF731"/>
<path d="M15.0713 15.2417C18.1926 14.0285 19.7383 10.5116 18.5236 7.38638C17.3089 4.26118 13.7938 2.7112 10.6725 3.9244C7.55111 5.1376 6.00546 8.65457 7.22015 11.7798C8.43485 14.905 11.9499 16.4549 15.0713 15.2417Z" fill="#9CF731"/>
<path d="M15.0017 15.5103C18.123 14.2971 19.6687 10.7801 18.454 7.65493C17.2393 4.52973 13.7242 2.97975 10.6029 4.19295C7.48153 5.40615 5.93588 8.92312 7.15057 12.0483C8.36527 15.1735 11.8803 16.7235 15.0017 15.5103Z" fill="#9DF730"/>
<path d="M14.9284 15.7759C18.0498 14.5627 19.5954 11.0458 18.3808 7.92056C17.1661 4.79536 13.651 3.24538 10.5296 4.45858C7.40829 5.67178 5.86263 9.18875 7.07733 12.3139C8.29202 15.4391 11.8071 16.9891 14.9284 15.7759Z" fill="#9EF72F"/>
<path d="M14.8603 16.0474C17.9817 14.8342 19.5273 11.3172 18.3126 8.19204C17.0979 5.06684 13.5829 3.51686 10.4615 4.73006C7.34017 5.94326 5.79452 9.46023 7.00921 12.5854C8.22391 15.7106 11.739 17.2606 14.8603 16.0474Z" fill="#9FF72F"/>
<path d="M14.7837 16.3179C17.905 15.1047 19.4507 11.5877 18.236 8.46255C17.0213 5.33735 13.5062 3.78737 10.3849 5.00057C7.26351 6.21377 5.71786 9.73074 6.93255 12.8559C8.14725 15.9811 11.6623 17.5311 14.7837 16.3179Z" fill="#A0F72E"/>
<path d="M14.7141 16.5865C17.8354 15.3733 19.3811 11.8563 18.1664 8.7311C16.9517 5.6059 13.4366 4.05592 10.3153 5.26913C7.19393 6.48233 5.64828 9.99929 6.86297 13.1245C8.07767 16.2497 11.5927 17.7997 14.7141 16.5865Z" fill="#A1F82D"/>
<path d="M14.6421 16.8589C17.7634 15.6457 19.3091 12.1288 18.0944 9.00356C16.8797 5.87836 13.3646 4.32839 10.2433 5.54159C7.12191 6.75479 5.57626 10.2718 6.79095 13.397C8.00565 16.5221 11.5207 18.0721 14.6421 16.8589Z" fill="#A2F82D"/>
<path d="M14.5725 17.1275C17.6938 15.9143 19.2395 12.3973 18.0248 9.27212C16.8101 6.14692 13.295 4.59694 10.1737 5.81014C7.05233 7.02334 5.50668 10.5403 6.72137 13.6655C7.93607 16.7907 11.4511 18.3407 14.5725 17.1275Z" fill="#A3F82C"/>
<path d="M14.4992 17.397C17.6206 16.1838 19.1662 12.6668 17.9516 9.54165C16.7369 6.41645 13.2218 4.86647 10.1004 6.07967C6.97909 7.29287 5.43344 10.8098 6.64813 13.935C7.86283 17.0602 11.3779 18.6102 14.4992 17.397Z" fill="#A4F82B"/>
<path d="M14.4275 17.6705C17.5488 16.4573 19.0945 12.9403 17.8798 9.81509C16.6651 6.68989 13.15 5.13991 10.0287 6.35311C6.90731 7.56631 5.36166 11.0833 6.57635 14.2085C7.79105 17.3337 11.3061 18.8837 14.4275 17.6705Z" fill="#A5F82B"/>
<path d="M14.3542 17.939C17.4756 16.7258 19.0212 13.2088 17.8065 10.0836C16.5918 6.95844 13.0768 5.40846 9.95542 6.62166C6.83407 7.83487 5.28842 11.3518 6.50311 14.477C7.71781 17.6022 11.2329 19.1522 14.3542 17.939Z" fill="#A6F82A"/>
<path d="M14.2264 18.2001C17.3408 16.9945 18.887 13.4894 17.68 10.3711C16.4729 7.25287 12.9696 5.70234 9.85522 6.90792C6.7408 8.1135 5.19458 11.6187 6.40165 14.7369C7.60872 17.8552 11.112 19.4057 14.2264 18.2001Z" fill="#A7F829"/>
<path d="M14.2129 18.48C17.3342 17.2668 18.8799 13.7499 17.6652 10.6247C16.4505 7.49946 12.9354 5.94948 9.81406 7.16268C6.69271 8.37588 5.14706 11.8928 6.36175 15.018C7.57645 18.1432 11.0915 19.6932 14.2129 18.48Z" fill="#A8F829"/>
<path d="M14.1399 18.7505C17.2612 17.5373 18.8069 14.0204 17.5922 10.8952C16.3775 7.76997 12.8624 6.21999 9.74107 7.43319C6.61971 8.64639 5.07406 12.1634 6.28876 15.2886C7.50345 18.4138 11.0185 19.9637 14.1399 18.7505Z" fill="#A9F828"/>
<path d="M14.0678 19.023C17.1892 17.8098 18.7349 14.2928 17.5202 11.1676C16.3055 8.04243 12.7904 6.49245 9.66904 7.70565C6.54769 8.91885 5.00204 12.4358 6.21673 15.561C7.43143 18.6862 10.9465 20.2362 14.0678 19.023Z" fill="#AAF927"/>
<path d="M13.9983 19.2915C17.1196 18.0783 18.6653 14.5614 17.4506 11.4362C16.2359 8.31098 12.7208 6.761 9.59946 7.9742C6.47811 9.1874 4.93246 12.7044 6.14715 15.8296C7.36185 18.9548 10.8769 20.5047 13.9983 19.2915Z" fill="#ABF927"/>
<path d="M13.8631 19.5448C16.9775 18.3393 18.5237 14.8341 17.3167 11.7158C16.1096 8.5976 12.6064 7.04707 9.49194 8.25265C6.37752 9.45823 4.8313 12.9634 6.03837 16.0816C7.24543 19.1999 10.7487 20.7504 13.8631 19.5448Z" fill="#ACF926"/>
<path d="M13.8569 19.8326C16.9783 18.6194 18.5239 15.1024 17.3092 11.9772C16.0945 8.852 12.5795 7.30202 9.45811 8.51522C6.33675 9.72842 4.7911 13.2454 6.0058 16.3706C7.22049 19.4958 10.7356 21.0458 13.8569 19.8326Z" fill="#ADF925"/>
<path d="M13.7802 20.1031C16.9016 18.8899 18.4473 15.3729 17.2326 12.2477C16.0179 9.12251 12.5028 7.57253 9.38145 8.78573C6.26009 9.99893 4.71444 13.5159 5.92914 16.6411C7.14383 19.7663 10.6589 21.3163 13.7802 20.1031Z" fill="#AEF925"/>
<path d="M13.7107 20.3716C16.832 19.1584 18.3777 15.6415 17.163 12.5163C15.9483 9.39106 12.4332 7.84108 9.31187 9.05428C6.19051 10.2675 4.64486 13.7844 5.85956 16.9096C7.07425 20.0348 10.5893 21.5848 13.7107 20.3716Z" fill="#AFF924"/>
<path d="M13.6386 20.6441C16.76 19.4309 18.3057 15.9139 17.091 12.7887C15.8763 9.66352 12.3612 8.11354 9.23985 9.32674C6.11849 10.5399 4.57284 14.0569 5.78753 17.1821C7.00223 20.3073 10.5173 21.8573 13.6386 20.6441Z" fill="#B0F923"/>
<path d="M13.5654 20.9126C16.6868 19.6994 18.2324 16.1825 17.0177 13.0573C15.803 9.93208 12.288 8.3821 9.1666 9.5953C6.04525 10.8085 4.4996 14.3255 5.71429 17.4507C6.92899 20.5759 10.444 22.1258 13.5654 20.9126Z" fill="#B1F923"/>
<path d="M13.4958 21.1812C16.6172 19.968 18.1628 16.451 16.9481 13.3258C15.7334 10.2006 12.2184 8.65065 9.09702 9.86385C5.97567 11.0771 4.43002 14.594 5.64471 17.7192C6.85941 20.8444 10.3745 22.3944 13.4958 21.1812Z" fill="#B2F922"/>
<path d="M13.4204 21.4546C16.5417 20.2414 18.0874 16.7245 16.8727 13.5993C15.658 10.4741 12.1429 8.92409 9.02158 10.1373C5.90023 11.3505 4.35458 14.8675 5.56927 17.9927C6.78397 21.1179 10.299 22.6678 13.4204 21.4546Z" fill="#B3FA21"/>
<path d="M13.3508 21.7203C16.4722 20.5071 18.0178 16.9901 16.8031 13.8649C15.5884 10.7397 12.0734 9.18971 8.952 10.4029C5.83065 11.6161 4.285 15.1331 5.49969 18.2583C6.71439 21.3835 10.2294 22.9335 13.3508 21.7203Z" fill="#B4FA21"/>
<path d="M13.279 21.9927C16.4004 20.7795 17.946 17.2625 16.7313 14.1374C15.5166 11.0122 12.0016 9.46217 8.88023 10.6754C5.75887 11.8886 4.21322 15.4055 5.42792 18.5307C6.64261 21.6559 10.1577 23.2059 13.279 21.9927Z" fill="#B5FA20"/>
<path d="M13.2094 22.2613C16.3308 21.0481 17.8765 17.5311 16.6618 14.4059C15.4471 11.2807 11.932 9.73073 8.81065 10.9439C5.68929 12.1571 4.14364 15.6741 5.35834 18.7993C6.57303 21.9245 10.0881 23.4745 13.2094 22.2613Z" fill="#B6FA1F"/>
<path d="M13.1328 22.5318C16.2541 21.3186 17.7998 17.8016 16.5851 14.6764C15.3704 11.5512 11.8553 10.0012 8.73399 11.2144C5.61263 12.4276 4.06698 15.9446 5.28168 19.0698C6.49637 22.195 10.0114 23.745 13.1328 22.5318Z" fill="#B7FA1F"/>
<path d="M13.0644 22.8033C16.1858 21.5901 17.7314 18.0731 16.5167 14.9479C15.302 11.8227 11.787 10.2727 8.66563 11.4859C5.54427 12.6991 3.99862 16.2161 5.21332 19.3413C6.42801 22.4665 9.94307 24.0165 13.0644 22.8033Z" fill="#B8FA1E"/>
<path d="M12.9912 23.0728C16.1125 21.8596 17.6582 18.3426 16.4435 15.2174C15.2288 12.0922 11.7137 10.5423 8.59239 11.7555C5.47103 12.9687 3.92538 16.4856 5.14007 19.6108C6.35477 22.736 9.86983 24.286 12.9912 23.0728Z" fill="#B9FA1D"/>
<path d="M12.9216 23.3414C16.043 22.1281 17.5886 18.6112 16.3739 15.486C15.1592 12.3608 11.6442 10.8108 8.5228 12.024C5.40145 13.2372 3.8558 16.7542 5.07049 19.8794C6.28519 23.0046 9.80025 24.5546 12.9216 23.3414Z" fill="#BAFA1D"/>
<path d="M12.8498 23.6138C15.9712 22.4006 17.5168 18.8836 16.3021 15.7584C15.0874 12.6332 11.5724 11.0833 8.45103 12.2965C5.32967 13.5097 3.78402 17.0266 4.99872 20.1518C6.21341 23.277 9.72847 24.827 12.8498 23.6138Z" fill="#BBFB1C"/>
<path d="M12.7768 23.8833C15.8982 22.6701 17.4438 19.1532 16.2291 16.028C15.0144 12.9028 11.4994 11.3528 8.37803 12.566C5.25668 13.7792 3.71102 17.2962 4.92572 20.4214C6.14041 23.5466 9.65548 25.0965 12.7768 23.8833Z" fill="#BCFB1B"/>
<path d="M12.7033 24.1529C15.8247 22.9397 17.3703 19.4227 16.1557 16.2975C14.941 13.1723 11.4259 11.6223 8.30454 12.8355C5.18319 14.0487 3.63754 17.5657 4.85223 20.6909C6.06693 23.8161 9.58199 25.3661 12.7033 24.1529Z" fill="#BDFB1B"/>
<path d="M12.6352 24.4244C15.7566 23.2112 17.3022 19.6942 16.0875 16.569C14.8728 13.4438 11.3578 11.8938 8.23643 13.107C5.11507 14.3202 3.56942 17.8372 4.78412 20.9624C5.99881 24.0876 9.51387 25.6376 12.6352 24.4244Z" fill="#BEFB1A"/>
<path d="M12.562 24.6939C15.6833 23.4807 17.229 19.9637 16.0143 16.8385C14.7996 13.7133 11.2845 12.1633 8.16318 13.3765C5.04183 14.5897 3.49618 18.1067 4.71087 21.2319C5.92557 24.3571 9.44063 25.9071 12.562 24.6939Z" fill="#BFFB19"/>
<path d="M12.4924 24.9624C15.6138 23.7492 17.1594 20.2323 15.9447 17.1071C14.73 13.9819 11.215 12.4319 8.09361 13.6451C4.97225 14.8583 3.4266 18.3753 4.64129 21.5005C5.85599 24.6257 9.37105 26.1756 12.4924 24.9624Z" fill="#C0FB19"/>
<path d="M12.417 25.2359C15.5383 24.0227 17.084 20.5057 15.8693 17.3805C14.6546 14.2553 11.1395 12.7053 8.01817 13.9185C4.89681 15.1317 3.35116 18.6487 4.56586 21.7739C5.78055 24.8991 9.29561 26.4491 12.417 25.2359Z" fill="#C1FB18"/>
<path d="M12.3474 25.5044C15.4687 24.2912 17.0144 20.7743 15.7997 17.6491C14.585 14.5239 11.0699 12.9739 7.94859 14.1871C4.82723 15.4003 3.28158 18.9173 4.49627 22.0425C5.71097 25.1677 9.22603 26.7176 12.3474 25.5044Z" fill="#C2FB17"/>
<path d="M12.2756 25.7769C15.397 24.5637 16.9426 21.0467 15.7279 17.9215C14.5132 14.7963 10.9982 13.2464 7.87681 14.4596C4.75546 15.6728 3.2098 19.1897 4.4245 22.3149C5.63919 25.4401 9.15425 26.9901 12.2756 25.7769Z" fill="#C3FB17"/>
<path d="M12.206 26.0455C15.3274 24.8323 16.873 21.3153 15.6583 18.1901C14.4436 15.0649 10.9286 13.5149 7.80723 14.7281C4.68587 15.9413 3.14022 19.4583 4.35492 22.5835C5.56961 25.7087 9.08467 27.2587 12.206 26.0455Z" fill="#C4FC16"/>
<path d="M12.1328 26.315C15.2541 25.1018 16.7998 21.5848 15.5851 18.4596C14.3704 15.3344 10.8553 13.7844 7.73399 14.9976C4.61263 16.2108 3.06698 19.7278 4.28168 22.853C5.49637 25.9782 9.01143 27.5282 12.1328 26.315Z" fill="#C5FC15"/>
<path d="M12.061 26.5884C15.1824 25.3752 16.728 21.8583 15.5133 18.7331C14.2986 15.6079 10.7836 14.0579 7.66221 15.2711C4.54086 16.4843 2.9952 20.0012 4.2099 23.1264C5.42459 26.2516 8.93966 27.8016 12.061 26.5884Z" fill="#C6FC15"/>
<path d="M11.9878 26.857C15.1091 25.6438 16.6548 22.1268 15.4401 19.0016C14.2254 15.8764 10.7103 14.3264 7.58897 15.5396C4.46761 16.7528 2.92196 20.2698 4.13666 23.395C5.35135 26.5202 8.86641 28.0702 11.9878 26.857Z" fill="#C7FC14"/>
<path d="M11.9182 27.1255C15.0395 25.9123 16.5852 22.3954 15.3705 19.2702C14.1558 16.145 10.6407 14.595 7.51939 15.8082C4.39803 17.0214 2.85238 20.5384 4.06708 23.6636C5.28177 26.7888 8.79683 28.3387 11.9182 27.1255Z" fill="#C8FC13"/>
<path d="M11.8464 27.398C14.9678 26.1848 16.5134 22.6678 15.2987 19.5426C14.084 16.4174 10.569 14.8674 7.44761 16.0806C4.32626 17.2939 2.7806 20.8108 3.9953 23.936C5.20999 27.0612 8.72505 28.6112 11.8464 27.398Z" fill="#C9FC13"/>
<path d="M11.7695 27.6646C14.8909 26.4514 16.4365 22.9344 15.2218 19.8092C14.0071 16.684 10.4921 15.134 7.3707 16.3473C4.24935 17.5605 2.7037 21.0774 3.91839 24.2026C5.13309 27.3278 8.64815 28.8778 11.7695 27.6646Z" fill="#CAFC12"/>
<path d="M11.6999 27.9331C14.8213 26.7199 16.3669 23.203 15.1522 20.0778C13.9375 16.9526 10.4225 15.4026 7.30112 16.6158C4.17977 17.829 2.63412 21.346 3.84881 24.4712C5.06351 27.5964 8.57857 29.1463 11.6999 27.9331Z" fill="#CBFC11"/>
<path d="M11.6281 28.2056C14.7495 26.9924 16.2952 23.4754 15.0805 20.3502C13.8658 17.225 10.3507 15.6751 7.22935 16.8883C4.10799 18.1015 2.56234 21.6184 3.77704 24.7436C4.99173 27.8688 8.50679 29.4188 11.6281 28.2056Z" fill="#CCFC11"/>
<path d="M11.5586 28.4742C14.6799 27.261 16.2256 23.744 15.0109 20.6188C13.7962 17.4936 10.2811 15.9436 7.15977 17.1568C4.03841 18.37 2.49276 21.887 3.70746 25.0122C4.92215 28.1374 8.43721 29.6874 11.5586 28.4742Z" fill="#CDFD10"/>
<path d="M11.4853 28.7437C14.6067 27.5305 16.1523 24.0135 14.9376 20.8883C13.7229 17.7631 10.2079 16.2132 7.08652 17.4264C3.96517 18.6396 2.41952 22.1565 3.63421 25.2817C4.84891 28.4069 8.36397 29.9569 11.4853 28.7437Z" fill="#CEFD0F"/>
<path d="M11.4135 29.0171C14.5349 27.8039 16.0806 24.287 14.8659 21.1618C13.6512 18.0366 10.1361 16.4866 7.01475 17.6998C3.89339 18.913 2.34774 22.43 3.56244 25.5552C4.77713 28.6804 8.29219 30.2303 11.4135 29.0171Z" fill="#CFFD0F"/>
<path d="M11.3403 29.2857C14.4617 28.0725 16.0073 24.5555 14.7926 21.4303C13.5779 18.3051 10.0629 16.7551 6.94151 17.9683C3.82015 19.1815 2.2745 22.6985 3.48919 25.8237C4.70389 28.9489 8.21895 30.4989 11.3403 29.2857Z" fill="#D0FD0E"/>
<path d="M11.2722 29.5581C14.3935 28.3449 15.9392 24.828 14.7245 21.7028C13.5098 18.5776 9.99474 17.0276 6.87339 18.2408C3.75204 19.454 2.20638 22.971 3.42108 26.0962C4.63577 29.2214 8.15084 30.7713 11.2722 29.5581Z" fill="#D1FD0D"/>
<path d="M11.1989 29.8267C14.3203 28.6135 15.866 25.0965 14.6513 21.9713C13.4366 18.8461 9.9215 17.2962 6.80015 18.5094C3.67879 19.7226 2.13314 23.2395 3.34784 26.3647C4.56253 29.4899 8.07759 31.0399 11.1989 29.8267Z" fill="#D2FD0D"/>
<path d="M11.1294 30.0953C14.2507 28.8821 15.7964 25.3651 14.5817 22.2399C13.367 19.1147 9.85192 17.5647 6.73057 18.7779C3.60921 19.9911 2.06356 23.5081 3.27826 26.6333C4.49295 29.7585 8.00801 31.3085 11.1294 30.0953Z" fill="#D3FD0C"/>
<path d="M11.0539 30.3697C14.1753 29.1565 15.7209 25.6395 14.5062 22.5143C13.2915 19.3891 9.77648 17.8391 6.65513 19.0523C3.53377 20.2655 1.98812 23.7825 3.20282 26.9077C4.41751 30.0329 7.93258 31.5829 11.0539 30.3697Z" fill="#D4FD0B"/>
<path d="M10.9843 30.6382C14.1057 29.425 15.6514 25.9081 14.4367 22.7829C13.222 19.6577 9.7069 18.1077 6.58555 19.3209C3.46419 20.5341 1.91854 24.0511 3.13324 27.1762C4.34793 30.3014 7.86299 31.8514 10.9843 30.6382Z" fill="#D5FE0B"/>
<path d="M10.9111 30.9068C14.0325 29.6936 15.5781 26.1766 14.3634 23.0514C13.1487 19.9262 9.63366 18.3762 6.51231 19.5894C3.39095 20.8026 1.8453 24.3196 3.06 27.4448C4.27469 30.57 7.78975 32.12 10.9111 30.9068Z" fill="#D6FE0A"/>
<path d="M10.843 31.1792C13.9643 29.966 15.51 26.4491 14.2953 23.3239C13.0806 20.1987 9.56555 18.6487 6.44419 19.8619C3.32284 21.0751 1.77719 24.5921 2.99188 27.7173C4.20658 30.8425 7.72164 32.3924 10.843 31.1792Z" fill="#D7FE09"/>
<path d="M10.7661 31.4488C13.8874 30.2356 15.4331 26.7186 14.2184 23.5934C13.0037 20.4682 9.48864 18.9182 6.36729 20.1314C3.24593 21.3446 1.70028 24.8616 2.91498 27.9868C4.12967 31.112 7.64473 32.662 10.7661 31.4488Z" fill="#D8FE09"/>
<path d="M10.6967 31.7183C13.8181 30.5051 15.3638 26.9881 14.1491 23.8629C12.9344 20.7377 9.4193 19.1878 6.29795 20.401C3.1766 21.6142 1.63095 25.1311 2.84564 28.2563C4.06034 31.3815 7.5754 32.9315 10.6967 31.7183Z" fill="#D9FE08"/>
<path d="M10.6247 31.9908C13.7461 30.7776 15.2917 27.2606 14.077 24.1354C12.8623 21.0102 9.34728 19.4602 6.22593 20.6734C3.10458 21.8866 1.55892 25.4036 2.77362 28.5288C3.98831 31.654 7.50338 33.204 10.6247 31.9908Z" fill="#DAFE07"/>
<path d="M10.5551 32.2593C13.6765 31.0461 15.2222 27.5292 14.0075 24.404C12.7928 21.2788 9.2777 19.7288 6.15635 20.942C3.035 22.1552 1.48934 25.6721 2.70404 28.7973C3.91873 31.9225 7.4338 33.4725 10.5551 32.2593Z" fill="#DBFE07"/>
<path d="M10.4819 32.5279C13.6033 31.3147 15.1489 27.7977 13.9342 24.6725C12.7195 21.5473 9.20446 19.9973 6.08311 21.2105C2.96175 22.4237 1.4161 25.9407 2.6308 29.0659C3.84549 32.1911 7.36055 33.7411 10.4819 32.5279Z" fill="#DCFE06"/>
<path d="M10.4101 32.8013C13.5315 31.5881 15.0771 28.0711 13.8624 24.9459C12.6477 21.8207 9.13268 20.2708 6.01133 21.484C2.88998 22.6972 1.34432 26.2141 2.55902 29.3393C3.77371 32.4645 7.28878 34.0145 10.4101 32.8013Z" fill="#DDFE05"/>
<path d="M10.3369 33.0708C13.4582 31.8576 15.0039 28.3407 13.7892 25.2155C12.5745 22.0903 9.05944 20.5403 5.93809 21.7535C2.81673 22.9667 1.27108 26.4837 2.48578 29.6089C3.70047 32.7341 7.21553 34.284 10.3369 33.0708Z" fill="#DEFF05"/>
<path d="M10.2688 33.3423C13.3901 32.1291 14.9358 28.6122 13.7211 25.487C12.5064 22.3618 8.99133 20.8118 5.86997 22.025C2.74862 23.2382 1.20297 26.7552 2.41766 29.8804C3.63236 33.0055 7.14742 34.5555 10.2688 33.3423Z" fill="#DFFF04"/>
<path d="M10.1955 33.6119C13.3169 32.3987 14.8625 28.8817 13.6478 25.7565C12.4331 22.6313 8.91808 21.0813 5.79673 22.2945C2.67538 23.5077 1.12972 27.0247 2.34442 30.1499C3.55911 33.2751 7.07418 34.8251 10.1955 33.6119Z" fill="#E0FF03"/>
<path d="M10.0391 33.8232C13.1535 32.6176 14.6998 29.1124 13.4927 25.9942C12.2856 22.8759 8.78238 21.3254 5.66796 22.531C2.55354 23.7366 1.00733 27.2417 2.21439 30.36C3.42146 33.4782 6.92471 35.0287 10.0391 33.8232Z" fill="#E1FF03"/>
<path d="M10.0505 34.1499C13.1719 32.9367 14.7175 29.4198 13.5028 26.2946C12.2881 23.1694 8.77306 21.6194 5.65171 22.8326C2.53036 24.0458 0.984705 27.5628 2.1994 30.688C3.41409 33.8132 6.92916 35.3631 10.0505 34.1499Z" fill="#E2FF02"/>
</svg>
